<svg width="38" height="37" viewBox="0 0 38 37" fill="none" xmlns="http://www.w3.org/2000/svg">
<path d="M31.9141 11.6575L32.6074 11.8967C32.8444 11.9785 33.0768 12.0614 33.3047 12.1448C33.5812 12.2455 33.8529 12.3596 34.1172 12.4866L34.1602 12.5081C34.64 12.7531 35.075 13.1083 35.4092 13.5647H35.4082C35.7806 14.0702 36.0008 14.6899 36 15.3508V29.5481L35.9932 29.7776C35.9622 30.2334 35.8292 30.6684 35.6143 31.0569L35.5 31.2473C35.1797 31.7404 34.7388 32.1191 34.249 32.3733C33.7598 32.6272 33.2208 32.7586 32.6836 32.7688C32.1465 32.779 31.6045 32.6677 31.1074 32.4348V32.4358C30.398 32.1036 29.6416 31.8412 28.8545 31.6565V31.6555C28.0899 31.4765 27.2981 31.3868 26.502 31.3879H26.4961C25.353 31.3861 24.2224 31.5625 23.1621 31.9075L23.1631 31.9084C22.0614 32.2675 21.0407 32.77 20.1367 33.3928L19.0029 34.175L17.8682 33.3938C17.6261 33.2272 17.3752 33.0701 17.1172 32.9211L16.9971 32.9895V32.8528C16.3236 32.4748 15.5998 32.1574 14.8369 31.9094V31.9084C13.7766 31.5634 12.6461 31.3861 11.5029 31.3879H11.4971C10.7009 31.3868 9.90913 31.4765 9.14455 31.6555L9.14552 31.6565C8.35911 31.8418 7.60423 32.1043 6.89552 32.4368L6.89455 32.4348C6.39554 32.6766 5.84958 32.7918 5.30861 32.7805C4.7479 32.7688 4.18442 32.6226 3.68068 32.3381L3.68166 32.3372C3.21244 32.0859 2.78953 31.7188 2.48244 31.2405C2.16675 30.7486 1.9939 30.1687 2.00294 29.5627H2.00099V15.3518C2.00077 14.7347 2.18461 14.1468 2.50685 13.6477H2.50783C2.86091 13.0979 3.36833 12.7036 3.92189 12.469H3.92091C4.94761 12.0048 6.02502 11.6389 7.13478 11.3772L7.61134 11.2717C11.7775 10.3988 16.1826 10.9599 19.9072 12.8635L20.9971 13.4211V13.8118L28.6065 7.23364L31.9141 4.37329V11.6575ZM11.4815 16.6428C10.6219 16.6383 9.76588 16.7235 8.93263 16.8958H8.93068C8.63395 16.9569 8.34234 17.0329 8.0547 17.1165V25.9768C8.11612 25.9638 8.17766 25.95 8.23927 25.9377L8.64845 25.8616C9.60018 25.6972 10.5678 25.6162 11.5371 25.6194H11.5518C12.7007 25.6161 13.8442 25.7355 14.958 25.9719V17.1116C14.6289 17.0153 14.2906 16.9388 13.9453 16.8831L13.9043 16.8752C13.1084 16.7297 12.2967 16.6519 11.4815 16.6428ZM25.961 25.6301C26.1404 25.6247 26.3203 25.6233 26.5 25.6233H26.5117C27.5027 25.6296 28.4921 25.7048 29.4697 25.8499H29.4688C29.6316 25.8735 29.7938 25.9005 29.9551 25.9309V22.6301L25.961 25.6301Z" fill="#F2A41E" stroke="white" stroke-width="4"/>
</svg>
