<svg width="117" height="133" viewBox="0 0 117 133" fill="none" xmlns="http://www.w3.org/2000/svg">
<path d="M112.43 133H4.56992C2.04545 133 0 130.958 0 128.437V50H117V128.437C117 130.958 114.955 133 112.43 133Z" fill="#0072BC"/>
<path d="M58.5 0L0 50.5L58.5 101L117 50.5L58.5 0Z" fill="#0C1552"/>
<path d="M58.4993 83L2 131.766C2.81018 132.527 3.89436 133 5.09637 133H111.904C113.104 133 114.19 132.527 115 131.766C112.279 129.42 58.4993 83 58.4993 83Z" fill="#081E4A"/>
<path d="M16 11V43.6749V57.8912L47.9955 86L58.5 76.7722C58.5 76.7722 62.7888 80.5398 69.0045 86L101 57.8912V43.6749V11H16Z" fill="white"/>
<path d="M58.5 65C69.2696 65 78 56.2696 78 45.5C78 34.7304 69.2696 26 58.5 26C47.7304 26 39 34.7304 39 45.5C39 56.2696 47.7304 65 58.5 65Z" fill="white"/>
<path d="M51.08 57L59 49.08L66.92 57L70 53.92L62.08 46L70 38.08L66.92 35L59 42.92L51.08 35L48 38.08L55.92 46L48 53.92L51.08 57ZM59 68C55.9567 68 53.0967 67.4225 50.42 66.2675C47.7433 65.1125 45.415 63.545 43.435 61.565C41.455 59.585 39.8875 57.2567 38.7325 54.58C37.5775 51.9033 37 49.0433 37 46C37 42.9567 37.5775 40.0967 38.7325 37.42C39.8875 34.7433 41.455 32.415 43.435 30.435C45.415 28.455 47.7433 26.8875 50.42 25.7325C53.0967 24.5775 55.9567 24 59 24C62.0433 24 64.9033 24.5775 67.58 25.7325C70.2567 26.8875 72.585 28.455 74.565 30.435C76.545 32.415 78.1125 34.7433 79.2675 37.42C80.4225 40.0967 81 42.9567 81 46C81 49.0433 80.4225 51.9033 79.2675 54.58C78.1125 57.2567 76.545 59.585 74.565 61.565C72.585 63.545 70.2567 65.1125 67.58 66.2675C64.9033 67.4225 62.0433 68 59 68Z" fill="#FF0035"/>
</svg>
