<svg width="51" height="71" viewBox="0 0 51 71" fill="none" xmlns="http://www.w3.org/2000/svg">
<path d="M32.092 62.2189C20.1261 62.2189 10.3912 52.484 10.3912 40.5181C10.3912 28.5523 20.1261 18.8174 32.092 18.8174C32.787 18.8174 33.1199 18.8355 33.3881 18.8592L34.1526 2.07085H1.91148V69.0325H34.1518L33.3873 62.1763C33.1278 62.2102 32.787 62.2189 32.092 62.2189Z" fill="white"/>
<path d="M24.719 2.0669H10.7478V5.57745H24.719V2.0669Z" fill="white"/>
<path d="M33.3881 62.1771V66.9782C33.3881 67.4563 32.9992 67.8444 32.5219 67.8444H4.02175C3.54369 67.8444 3.15555 67.4555 3.15555 66.9782V3.73223C3.15555 3.41431 3.41431 3.15555 3.73223 3.15555H8.22022C8.51921 5.0055 9.83902 6.41051 11.4105 6.41051H25.134C26.7055 6.41051 28.0245 5.0055 28.3243 3.15555H32.5219C33 3.15555 33.3881 3.54448 33.3881 4.02175V18.86C34.4626 18.9239 35.5166 19.0635 36.5437 19.2789V4.02175C36.5437 1.80103 34.7426 0 32.5219 0H3.73223C1.67087 0 0 1.67087 0 3.73223V66.9782C0 69.1997 1.80103 71 4.02175 71H32.5211C34.7426 71 36.5429 69.199 36.5429 66.9782V61.7582C35.5166 61.9727 34.4626 62.1132 33.3881 62.1771ZM22.9109 3.35278C23.2375 3.35278 23.5026 3.61784 23.5026 3.94444C23.5026 4.27104 23.2375 4.53611 22.9109 4.53611C22.5843 4.53611 22.3192 4.27104 22.3192 3.94444C22.3192 3.61784 22.5843 3.35278 22.9109 3.35278ZM13.0411 3.35278H20.5087C20.8353 3.35278 21.1004 3.61784 21.1004 3.94444C21.1004 4.27104 20.8353 4.53611 20.5087 4.53611H13.0411C12.7145 4.53611 12.4495 4.27104 12.4495 3.94444C12.4495 3.61784 12.7145 3.35278 13.0411 3.35278Z" fill="#0D2D6C"/>
<path d="M32.0951 57.084C41.2447 57.084 48.6618 49.6668 48.6618 40.5173C48.6618 31.3678 41.2447 23.9507 32.0951 23.9507C22.9456 23.9507 15.5285 31.3678 15.5285 40.5173C15.5285 49.6668 22.9456 57.084 32.0951 57.084Z" fill="white"/>
<path d="M32.092 21.9729C21.8498 21.9729 13.5468 30.2759 13.5468 40.5181C13.5468 50.7602 21.8498 59.0632 32.092 59.0632C42.3341 59.0632 50.6372 50.7602 50.6372 40.5181C50.6372 30.2759 42.3341 21.9729 32.092 21.9729ZM41.2549 36.7913L31.1429 48.687C30.7674 49.1288 30.2184 49.382 29.6401 49.382C29.6338 49.382 29.6283 49.382 29.6228 49.382C29.0382 49.3765 28.4868 49.1122 28.1152 48.6602L23.2383 42.7119C22.548 41.8702 22.6703 40.6269 23.5128 39.9359C24.3554 39.2456 25.5979 39.3686 26.2881 40.2112L29.6669 44.3331L38.2493 34.2369C38.9561 33.407 40.1986 33.306 41.0293 34.0113C41.8592 34.7158 41.9602 35.9606 41.2549 36.7913Z" fill="#0D2D6C"/>
</svg>
