<svg width="54" height="63" viewBox="0 0 54 63" fill="none" xmlns="http://www.w3.org/2000/svg">
<path d="M35.9972 54.2533C35.9972 54.272 36 54.29 36 54.3094C36.0007 59.1088 31.7472 63 26.5004 63C21.2535 63 17 59.1088 17 54.3087C17 54.29 17.0028 54.272 17.0028 54.2526C23.3347 49.9157 29.666 49.9157 35.9972 54.2533Z" fill="white"/>
<path d="M46.032 39.9509V23.5601C46.032 12.7573 37.2871 4 26.4997 4C15.7122 4 6.96741 12.7573 6.96741 23.5601V39.9509C6.96741 42.0266 6.0597 43.9985 4.4837 45.3466C2.9077 46.6947 2 48.6666 2 50.7422C2 51.9891 3.00948 53 4.25454 53H48.7455C49.9905 53 51 51.9891 51 50.7422C51 48.6666 50.0923 46.6947 48.5163 45.3466C46.9397 43.9985 46.032 42.0266 46.032 39.9509Z" fill="#CD163F"/>
<path d="M26.5 7C28.433 7 30 5.433 30 3.5C30 1.567 28.433 0 26.5 0C24.567 0 23 1.567 23 3.5C23 5.433 24.567 7 26.5 7Z" fill="white"/>
<path d="M53.2738 27C52.8721 27 52.5475 26.6688 52.5475 26.2608C52.5475 15.774 46.0854 6.19641 36.4655 2.42879C36.0907 2.28243 35.9048 1.85445 36.0486 1.47377C36.1931 1.09235 36.6158 0.903116 36.9876 1.04947C47.1631 5.03515 54 15.1671 54 26.2608C54 26.6696 53.6754 27 53.2738 27Z" fill="#CD163F"/>
<path d="M0.726269 27C0.325368 27 0 26.6688 0 26.2608C0 15.1671 6.83709 5.03508 17.0128 1.04938C17.3869 0.903026 17.8074 1.093 17.9512 1.47368C18.0957 1.8551 17.9083 2.28235 17.5343 2.42871C7.91487 6.19708 1.45254 15.7747 1.45254 26.2608C1.45254 26.6696 1.12717 27 0.726269 27Z" fill="#CD163F"/>
</svg>
