<svg width="69" height="134" viewBox="0 0 69 134" fill="none" xmlns="http://www.w3.org/2000/svg">
<path d="M62.3449 131.046H6.61521C3.83394 131.046 1.57974 128.792 1.57974 126.011V8.00137C1.57974 5.2201 3.83394 2.96589 6.61521 2.96589H62.3434C65.1247 2.96589 67.3789 5.2201 67.3789 8.00137V126.009C67.3804 128.79 65.1262 131.046 62.3449 131.046Z" fill="white"/>
<path d="M46.4702 3.57336H22.3797V8.24852H46.4702V3.57336Z" fill="#ECF0F1"/>
<path d="M61.3786 0H7.59044C3.39768 0 0 3.39917 0 7.59044V126.41C0 130.602 3.39917 134 7.59044 134H61.3786C65.5714 134 68.9691 130.601 68.9691 126.41V7.59044C68.9691 3.39917 65.5714 0 61.3786 0ZM64.5024 126.411C64.5024 128.134 63.1013 129.535 61.3786 129.535H7.59044C5.86777 129.535 4.46672 128.134 4.46672 126.411V7.59044C4.46672 5.86778 5.86777 4.46672 7.59044 4.46672H15.5129C16.0772 7.9582 18.5681 10.6099 21.534 10.6099H47.435C50.4009 10.6099 52.8904 7.9582 53.4562 4.46672H61.3786C63.1013 4.46672 64.5024 5.86778 64.5024 7.59044V126.411ZM44.3173 5.95562C44.3173 6.52736 43.8527 6.9919 43.281 6.9919C42.7092 6.9919 42.2447 6.52736 42.2447 5.95562C42.2447 5.38388 42.7092 4.91934 43.281 4.91934C43.8527 4.91934 44.3173 5.38388 44.3173 5.95562ZM39.4902 5.95562C39.4902 6.36656 39.1567 6.70007 38.7458 6.70007H24.6518C24.2409 6.70007 23.9074 6.36656 23.9074 5.95562C23.9074 5.54468 24.2409 5.21117 24.6518 5.21117H38.7458C39.1582 5.21117 39.4902 5.54468 39.4902 5.95562Z" fill="#0072BC"/>
</svg>
