<svg width="16" height="15" viewBox="0 0 16 15" fill="none" xmlns="http://www.w3.org/2000/svg">
<path d="M6.91204 14.2588C6.82062 14.0677 6.94771 13.9476 6.83994 13.7872C6.7567 13.9651 6.67048 14.1109 6.6192 14.2668C6.48319 14.6813 6.19109 14.9376 5.76968 14.9918C5.33786 15.0474 5.0138 14.8197 4.77448 14.4719C4.24753 13.7037 3.71388 12.94 3.09328 12.2407C2.32031 11.3693 1.53024 10.5148 0.680722 9.71443C0.523899 9.56652 0.465183 9.24433 0.299441 9.19234C-0.1688 9.04443 0.0705232 8.69734 0.00214523 8.44032C0.268225 8.38394 0.205793 8.11667 0.315049 7.95996C0.350724 7.90944 0.525385 7.72491 0.237752 7.83036C0.197617 7.845 0.188698 7.7769 0.209509 7.75127C0.40944 7.51036 0.444372 7.11495 0.864302 7.07761C0.934167 7.07101 1.0018 7.02781 1.06944 6.99852C1.51092 6.80667 2.01409 6.86452 2.3374 7.21527C3.00334 7.93727 3.80678 8.5194 4.44448 9.26776C4.54779 9.38858 4.65036 9.51087 4.73881 9.64194C5.03759 10.0828 5.29103 10.0784 5.55934 9.61338C6.24981 8.41542 6.9715 7.23724 7.79649 6.12275C8.28554 5.46153 8.75007 4.76516 9.36844 4.22989C10.0545 3.63677 10.623 2.94259 11.2184 2.28137C11.7981 1.63773 12.4298 1.0717 13.0973 0.534228C14.0204 -0.209005 14.4931 -0.188502 15.2831 0.669694C15.8153 1.24744 16.1118 1.93648 15.761 2.71999C15.5953 3.08978 15.3916 3.45663 15.0289 3.7012C14.8565 3.8169 14.7079 3.96774 14.5525 4.10614C14.3162 4.31703 14.1021 4.54109 13.7974 4.68242C13.4971 4.82228 13.3084 5.1203 13.0943 5.37439C12.1786 6.45885 11.2503 7.53306 10.3376 8.61972C9.77574 9.289 9.43756 10.0989 8.95817 10.8187C8.31156 11.7882 7.71919 12.7855 7.19521 13.8238C7.12535 13.9615 7.02724 14.0852 6.91352 14.2588H6.91204Z" fill="white"/>
</svg>
