<svg width="16" height="16" viewBox="0 0 16 16" fill="none" xmlns="http://www.w3.org/2000/svg">
<path d="M14.9344 7.96177C15.0482 7.26951 14.7722 6.60651 14.6208 5.92495C14.5397 5.56027 14.6614 5.31477 14.9598 5.25339C15.23 5.19844 15.4567 5.38399 15.5748 5.7344C15.7566 6.27322 15.8428 6.8256 15.8957 7.39154C16.3064 11.8163 13.1177 15.4539 9.00757 15.9399C5.20167 16.3902 1.70654 14.2763 0.465677 10.7158C0.0419144 9.50044 -0.139181 8.24652 0.120148 6.93123C0.288204 6.07911 0.649669 5.30977 0.892337 4.49333C0.915517 4.41483 0.956807 4.33704 1.00824 4.27281C1.65294 3.4685 2.12016 2.53217 2.92929 1.8499C3.57617 1.30466 4.25563 0.825072 5.07346 0.564583C5.27918 0.498925 5.49939 0.541032 5.71091 0.468237C6.15496 0.314798 6.55627 0.0593048 7.05392 0.030758C7.91303 -0.0177715 8.76635 -0.0334722 9.60591 0.174206C10.118 0.300525 10.3158 0.578143 10.2376 1.0092C10.1644 1.41385 9.82902 1.64151 9.3531 1.60083C8.13179 1.49521 6.9286 1.50449 5.74858 1.92127C3.63919 2.66705 2.22737 4.10153 1.54066 6.16974C1.14659 7.35729 1.06836 8.58337 1.42548 9.85156C1.70075 10.83 2.11871 11.715 2.74385 12.4722C3.42839 13.3014 4.31141 13.9366 5.32917 14.3684C6.11439 14.7017 6.93439 14.8865 7.77395 14.9771C8.35056 15.0392 8.92571 14.9172 9.49653 14.823C9.63633 14.7994 9.81236 14.6174 9.92319 14.8808C9.92826 14.8936 10.0391 14.8786 10.0898 14.8551C10.4723 14.676 10.9467 14.661 11.2032 14.2535C11.2206 14.2256 11.2604 14.1957 11.2908 14.1942C11.9319 14.1685 12.1622 13.6097 12.5498 13.2558C12.6135 13.1972 12.6157 13.1937 12.7642 13.2558C12.828 13.2822 12.8576 13.2415 12.8823 13.2101C13.1097 12.9253 13.5212 12.7676 13.4966 12.3016C13.4915 12.1995 13.6197 12.0689 13.7168 11.9869C14.0645 11.6935 14.1738 11.2368 14.4919 10.9214C14.5925 10.8214 14.6498 10.6423 14.6592 10.4953C14.7128 9.65459 15.0496 8.846 14.9337 7.96177H14.9344Z" fill="white"/>
</svg>
