<svg width="96" height="134" viewBox="0 0 96 134" fill="none" xmlns="http://www.w3.org/2000/svg">
<path d="M60.568 117.427C37.9845 117.427 19.6116 99.0543 19.6116 76.4708C19.6116 53.8874 37.9845 35.5145 60.568 35.5145C61.8797 35.5145 62.508 35.5487 63.0142 35.5934L64.4569 3.90835H3.60754V130.287H64.4554L63.0127 117.347C62.5229 117.411 61.8797 117.427 60.568 117.427Z" fill="white"/>
<path d="M46.6528 3.90089H20.2846V10.5264H46.6528V3.90089Z" fill="white"/>
<path d="M63.0142 117.348V126.41C63.0142 127.312 62.2802 128.044 61.3794 128.044H7.59035C6.68809 128.044 5.95555 127.31 5.95555 126.41V7.04393C5.95555 6.44391 6.44391 5.95556 7.04393 5.95556H15.5142C16.0785 9.447 18.5694 12.0987 21.5353 12.0987H47.436C50.4019 12.0987 52.8913 9.447 53.4571 5.95556H61.3794C62.2817 5.95556 63.0142 6.68958 63.0142 7.59036V35.5949C65.0421 35.7155 67.0313 35.979 68.9698 36.3855V7.59036C68.9698 3.39913 65.5707 0 61.3794 0H7.04393C3.15346 0 0 3.15347 0 7.04393V126.41C0 130.602 3.39913 134 7.59035 134H61.3779C65.5707 134 68.9683 130.601 68.9683 126.41V116.558C67.0313 116.963 65.0421 117.228 63.0142 117.348ZM43.2403 6.32778C43.8567 6.32778 44.357 6.82804 44.357 7.44445C44.357 8.06084 43.8567 8.56111 43.2403 8.56111C42.6239 8.56111 42.1236 8.06084 42.1236 7.44445C42.1236 6.82804 42.6239 6.32778 43.2403 6.32778ZM24.6128 6.32778H38.7066C39.323 6.32778 39.8233 6.82804 39.8233 7.44445C39.8233 8.06084 39.323 8.56111 38.7066 8.56111H24.6128C23.9964 8.56111 23.4962 8.06084 23.4962 7.44445C23.4962 6.82804 23.9964 6.32778 24.6128 6.32778Z" fill="#0072BC"/>
<path d="M60.574 107.736C77.8421 107.736 91.8406 93.7374 91.8406 76.4693C91.8406 59.2012 77.8421 45.2027 60.574 45.2027C43.3059 45.2027 29.3073 59.2012 29.3073 76.4693C29.3073 93.7374 43.3059 107.736 60.574 107.736Z" fill="#F1EFEF"/>
<path d="M60.568 41.47C41.2377 41.47 25.5672 57.1406 25.5672 76.4708C25.5672 95.801 41.2377 111.472 60.568 111.472C79.8982 111.472 95.5688 95.801 95.5688 76.4708C95.5688 57.1406 79.8982 41.47 60.568 41.47ZM77.8614 69.4373L58.7768 91.8882C58.0681 92.722 57.0318 93.2 55.9405 93.2C55.9286 93.2 55.9182 93.2 55.9077 93.2C54.8045 93.1895 53.7637 92.6908 53.0625 91.8376L43.8582 80.6114C42.5554 79.0228 42.7862 76.6763 44.3763 75.372C45.9664 74.0692 48.3114 74.3015 49.6142 75.8916L55.9911 83.6711L72.1887 64.6163C73.5228 63.05 75.8678 62.8594 77.4356 64.1904C79.0019 65.52 79.1925 67.8695 77.8614 69.4373Z" fill="white"/>
</svg>
