<svg width="24" height="24" viewBox="0 0 24 24" fill="none" xmlns="http://www.w3.org/2000/svg">
<path d="M15.3 16.6998L11 12.3998V6.9998H13V11.5998L16.7 15.2998L15.3 16.6998ZM2.85005 16.0748C2.63338 15.5915 2.45838 15.0915 2.32505 14.5748C2.19172 14.0581 2.10005 13.5331 2.05005 12.9998H4.07505C4.12505 13.3498 4.19588 13.6998 4.28755 14.0498C4.37922 14.3998 4.49172 14.7415 4.62505 15.0748L2.85005 16.0748ZM2.05005 10.9998C2.10005 10.4665 2.19172 9.9373 2.32505 9.4123C2.45838 8.8873 2.64172 8.38314 2.87505 7.8998L4.62505 8.8998C4.49172 9.23314 4.37922 9.5748 4.28755 9.9248C4.19588 10.2748 4.12505 10.6331 4.07505 10.9998H2.05005ZM6.17505 20.1498C5.72505 19.8165 5.30838 19.454 4.92505 19.0623C4.54172 18.6706 4.18338 18.2498 3.85005 17.7998L5.60005 16.7998C5.83338 17.0998 6.07922 17.379 6.33755 17.6373C6.59588 17.8956 6.87505 18.1415 7.17505 18.3748L6.17505 20.1498ZM5.62505 7.1748L3.85005 6.1748C4.18338 5.7248 4.54172 5.30814 4.92505 4.9248C5.30838 4.54147 5.72505 4.18314 6.17505 3.8498L7.17505 5.6248C6.89172 5.85814 6.62088 6.10397 6.36255 6.3623C6.10422 6.62064 5.85838 6.89147 5.62505 7.1748ZM11 21.9498C10.4667 21.8998 9.93755 21.8081 9.41255 21.6748C8.88755 21.5415 8.38338 21.3581 7.90005 21.1248L8.90005 19.3748C9.23338 19.5081 9.57505 19.6206 9.92505 19.7123C10.275 19.804 10.6334 19.8748 11 19.9248V21.9498ZM8.90005 4.6248L7.90005 2.8748C8.38338 2.64147 8.88755 2.45814 9.41255 2.3248C9.93755 2.19147 10.4667 2.0998 11 2.0498V4.0748C10.6334 4.1248 10.275 4.19564 9.92505 4.2873C9.57505 4.37897 9.23338 4.49147 8.90005 4.6248ZM13 21.9498V19.9248C13.3667 19.8748 13.725 19.804 14.075 19.7123C14.425 19.6206 14.7667 19.5081 15.1 19.3748L16.1 21.1248C15.6167 21.3581 15.1125 21.5415 14.5875 21.6748C14.0625 21.8081 13.5334 21.8998 13 21.9498ZM15.1 4.6248C14.7667 4.49147 14.425 4.37897 14.075 4.2873C13.725 4.19564 13.3667 4.1248 13 4.0748V2.0498C13.5334 2.0998 14.0625 2.19147 14.5875 2.3248C15.1125 2.45814 15.6167 2.64147 16.1 2.8748L15.1 4.6248ZM17.825 20.1498L16.825 18.3748C17.1084 18.1415 17.3792 17.8956 17.6375 17.6373C17.8959 17.379 18.1417 17.1081 18.375 16.8248L20.15 17.8248C19.8167 18.2748 19.4584 18.6956 19.075 19.0873C18.6917 19.479 18.275 19.8331 17.825 20.1498ZM18.375 7.1748C18.1417 6.89147 17.8959 6.62064 17.6375 6.3623C17.3792 6.10397 17.1084 5.85814 16.825 5.6248L17.825 3.8498C18.275 4.16647 18.6917 4.51647 19.075 4.8998C19.4584 5.28314 19.8084 5.6998 20.125 6.1498L18.375 7.1748ZM19.925 10.9998C19.875 10.6331 19.8042 10.2748 19.7125 9.9248C19.6209 9.5748 19.5084 9.23314 19.375 8.8998L21.125 7.8748C21.3417 8.3748 21.5209 8.8873 21.6625 9.4123C21.8042 9.9373 21.9 10.4665 21.95 10.9998H19.925ZM21.125 16.0998L19.375 15.0998C19.5084 14.7665 19.6209 14.4248 19.7125 14.0748C19.8042 13.7248 19.875 13.3665 19.925 12.9998H21.95C21.9 13.5331 21.8084 14.0623 21.675 14.5873C21.5417 15.1123 21.3584 15.6165 21.125 16.0998Z" fill="white" fill-opacity="0.35"/>
</svg>
