<svg width="20" height="20" viewBox="0 0 20 20" fill="none" xmlns="http://www.w3.org/2000/svg">
<g clip-path="url(#clip0_1_126)">
<path d="M15.0026 10.4167C15.0026 8.62376 16.0347 7.0755 17.535 6.32233C16.1957 5.068 14.4749 5 14.1691 5C13.3564 5 12.7765 5.22013 12.216 5.43294C11.6731 5.63924 11.1603 5.83374 10.4184 5.83374C9.67648 5.83374 9.16368 5.63924 8.62077 5.43294C8.06036 5.22013 7.48041 5 6.66767 5C6.15569 5 1.66669 5.16357 1.66669 10.8337C1.66669 15.4704 4.83096 20 6.66767 20C7.79216 20 8.43885 19.7371 9.00984 19.5052C9.45589 19.3241 9.84171 19.1675 10.4184 19.1675C10.9951 19.1675 11.3809 19.3241 11.827 19.5056C12.398 19.7371 13.0447 20 14.1687 20C15.4555 20 17.2879 17.7741 18.3334 14.8485C16.3598 14.3373 15.0026 12.5497 15.0026 10.4167Z" fill="white"/>
<path d="M10.0019 5C12.4433 4.5 14.1932 2.4876 14.1689 0C11.7275 0.5 9.97754 2.5124 10.0019 5Z" fill="white"/>
<path opacity="0.1" d="M6.66767 5.20833C7.48041 5.20833 8.06036 5.42847 8.62077 5.64128C9.16368 5.84757 9.67648 6.04207 10.4184 6.04207C11.1603 6.04207 11.6731 5.84757 12.216 5.64128C12.7765 5.42847 13.3564 5.20833 14.1691 5.20833C14.4638 5.20833 16.0706 5.28239 17.3859 6.41037C17.4366 6.3825 17.4832 6.34832 17.535 6.32233C16.1957 5.068 14.4749 5 14.1691 5C13.3564 5 12.7765 5.22013 12.216 5.43294C11.6731 5.63924 11.1603 5.83374 10.4184 5.83374C9.67648 5.83374 9.16368 5.63924 8.62077 5.43294C8.06036 5.22013 7.48041 5 6.66767 5C6.15569 5 1.66669 5.16357 1.66669 10.8337C1.66669 10.872 1.67101 10.9099 1.67142 10.9481C1.72351 5.37537 6.15869 5.20833 6.66767 5.20833Z" fill="white"/>
<path opacity="0.2" d="M14.1687 19.7916C13.0447 19.7916 12.398 19.5288 11.827 19.2972C11.3809 19.1158 10.9951 18.9591 10.4184 18.9591C9.84171 18.9591 9.45589 19.1158 9.00984 19.2968C8.43885 19.5288 7.79216 19.7916 6.66767 19.7916C4.84612 19.7916 1.7229 15.336 1.67142 10.7397C1.67111 10.7727 1.66669 10.8004 1.66669 10.8337C1.66669 15.4703 4.83096 19.9999 6.66767 19.9999C7.79216 19.9999 8.43885 19.7371 9.00984 19.5052C9.45589 19.3241 9.84171 19.1674 10.4184 19.1674C10.9951 19.1674 11.3809 19.3241 11.827 19.5056C12.398 19.7371 13.0447 19.9999 14.1687 19.9999C15.4555 19.9999 17.2879 17.7741 18.3334 14.8485C18.3091 14.8422 18.2873 14.8306 18.2632 14.824C17.2036 17.6575 15.4281 19.7916 14.1687 19.7916Z" fill="white"/>
<path opacity="0.2" d="M14.1496 0.368541C13.9776 2.64449 12.2906 4.3135 10.0044 4.78911C10.0021 4.86124 10.0012 4.92706 10.0019 5.00005C12.3703 4.51497 14.0882 2.60208 14.1665 0.217285C14.1592 0.256249 14.162 0.321909 14.1496 0.368541Z" fill="white"/>
<path opacity="0.1" d="M10.0045 4.77852C10.0141 4.72419 10.0262 4.57313 10.0381 4.48177C10.0468 4.36699 10.0593 4.25415 10.0754 4.14329C10.38 2.05523 11.9949 0.668969 14.1665 0.217234C14.1688 0.145111 14.1696 0.0729879 14.1689 0C11.7997 0.485178 10.0817 2.39261 10.0045 4.77852Z" fill="white"/>
<path d="M15.0026 10.4167C15.0026 8.62376 16.0347 7.0755 17.535 6.32233C16.1957 5.068 14.4749 5 14.1691 5C13.3564 5 12.7765 5.22013 12.216 5.43294C11.6731 5.63924 11.1603 5.83374 10.4184 5.83374C9.67648 5.83374 9.16368 5.63924 8.62077 5.43294C8.06036 5.22013 7.48041 5 6.66767 5C6.15569 5 1.66669 5.16357 1.66669 10.8337C1.66669 15.4704 4.83096 20 6.66767 20C7.79216 20 8.43885 19.7371 9.00984 19.5052C9.45589 19.3241 9.84171 19.1675 10.4184 19.1675C10.9951 19.1675 11.3809 19.3241 11.827 19.5056C12.398 19.7371 13.0447 20 14.1687 20C15.4555 20 17.2879 17.7741 18.3334 14.8485C16.3598 14.3373 15.0026 12.5497 15.0026 10.4167ZM14.1689 0C11.7275 0.49998 9.97754 2.51241 10.0019 5C12.4433 4.49997 14.1933 2.48759 14.1689 0Z" fill="white"/>
</g>
<defs>
<clipPath id="clip0_1_126">
<rect width="20" height="20" fill="white"/>
</clipPath>
</defs>
</svg>
