<svg width="137" height="124" viewBox="0 0 137 124" fill="none" xmlns="http://www.w3.org/2000/svg">
<rect width="375" height="812" transform="translate(-119 -241)" fill="#0D111D"/>
<g clip-path="url(#clip0_0_1)">
<path d="M79.6344 114.901C71.1434 114.868 62.7254 114.023 54.4755 112.041C38.4909 108.201 28.6225 98.1102 24.9615 82.1023C22.9301 73.2261 22.0533 64.1853 22.2761 55.075C22.4698 47.1424 23.259 39.239 25.2611 31.5587C29.5615 15.0863 40.3579 5.50793 56.971 2.31147C65.4876 0.673005 74.0772 -0.288859 82.74 0.0768691C92.3563 0.482827 102.046 1.13017 111.063 4.78379C124.128 10.0795 131.841 19.9944 134.53 33.8628C136.229 42.6256 137.307 51.4543 136.927 60.3708C136.518 69.993 135.878 79.6848 132.312 88.7366C127.329 101.391 117.87 109.108 104.625 112.096C96.4045 113.95 88.0706 114.868 79.6381 114.901H79.6344Z" fill="#0072BC"/>
<path d="M82.0567 85.9569C83.1528 86.0629 85.0856 85.7484 87.0184 85.5546C92.2138 85.0352 97.2047 83.821 101.669 80.9428C105.59 78.4156 106.518 75.8921 104.998 71.4448C103.24 66.2954 99.3749 63.2013 94.6435 60.9813C92.8824 60.1548 91.1287 60.1365 89.3677 60.985C83.9749 63.589 78.5712 63.567 73.1857 60.985C71.9143 60.3742 70.5844 60.1146 69.2873 60.5351C63.763 62.3345 58.5128 66.6501 57.1134 73.0321C56.4814 75.914 57.2304 78.3168 59.7112 80.0906C61.4503 81.3377 63.2588 82.4276 65.2647 83.203C70.3944 85.1815 75.7433 85.8069 82.0458 85.9532L82.0567 85.9569Z" fill="white"/>
<path d="M95.3304 44.8968C95.345 36.8947 89.2289 30.7541 81.2457 30.7468C73.405 30.7432 67.2012 36.924 67.1902 44.7615C67.1792 52.6539 73.2991 58.875 81.1105 58.9115C89.1083 58.9481 95.3158 52.8295 95.3304 44.8968Z" fill="white"/>
<path d="M81.5855 82.3399C76.7261 82.4642 72.2358 81.8205 67.8515 80.4271C66.3937 79.9626 65.0199 79.3153 63.7083 78.5436C59.9487 76.3383 59.4956 74.6888 61.6184 70.8158C63.4671 67.4438 66.5069 65.4835 69.8975 63.9657C70.6429 63.6329 71.3078 63.9255 71.9837 64.2437C77.9976 67.078 84.0699 67.1804 90.1276 64.4485C91.5525 63.8048 92.7181 63.8926 94.0772 64.6057C97.8916 66.6099 100.858 69.2907 102.02 73.6209C102.433 75.1643 102.035 76.3163 100.749 77.2855C96.9782 80.1236 92.6048 81.2939 88.0487 81.9485C85.8237 82.2667 83.5803 82.4898 81.5855 82.3399Z" fill="#0072BC"/>
<path d="M81.337 34.1699C87.402 34.4296 92.17 39.3596 91.98 45.1673C91.79 50.8471 86.6786 55.7369 81.0886 55.5321C75.3231 55.3199 70.2702 50.3753 70.7415 43.986C71.1288 38.7086 76.094 33.9468 81.3407 34.1699H81.337Z" fill="#0072BC"/>
<path opacity="0.1" d="M96.9087 83.3054C93.7264 84.5525 90.3578 85.2108 86.9015 85.5546C84.9687 85.7485 83.0359 86.063 81.9398 85.9569C75.6373 85.8106 70.2884 85.1852 65.1587 83.2067C63.1529 82.4313 61.3444 81.3414 59.6052 80.0943C57.1244 78.3169 56.3754 75.9177 57.0075 73.0358C58.4032 66.6538 63.6534 62.3382 69.1814 60.5389C70.4784 60.1183 71.8083 60.3779 73.0798 60.9887C73.9347 61.3983 74.7897 61.7348 75.6446 62.0164L31.3627 17.6902C28.6225 21.5998 26.5399 26.2153 25.1479 31.5586C23.1457 39.2389 22.3565 47.1459 22.1629 55.0749C21.94 64.1852 22.8205 73.226 24.8483 82.1022C28.5092 98.1101 38.3777 108.201 54.3623 112.041C62.6122 114.023 71.0301 114.871 79.5211 114.901C87.9501 114.864 96.2876 113.95 104.508 112.095C110.139 110.826 115.082 108.698 119.291 105.703L96.9124 83.3018L96.9087 83.3054Z" fill="white"/>
<path opacity="0.1" d="M69.7806 63.9695C66.39 65.4873 63.3502 67.4439 61.5015 70.8196C59.3787 74.6963 59.8281 76.3421 63.5914 78.5474C64.9067 79.3191 66.2804 79.9664 67.7346 80.4309C72.1189 81.828 76.6092 82.468 81.4686 82.3437C83.4671 82.4936 85.7068 82.2705 87.9318 81.9524C90.0692 81.6451 92.1627 81.2209 94.1722 80.5699L80.0181 66.4016C77.2925 66.2443 74.5742 65.5239 71.8632 64.2475C71.1873 63.9293 70.5223 63.633 69.777 63.9695H69.7806Z" fill="white"/>
<path d="M30.0584 124C46.6592 124 60.1168 110.529 60.1168 93.9117C60.1168 77.2943 46.6592 63.8232 30.0584 63.8232C13.4576 63.8232 0 77.2943 0 93.9117C0 110.529 13.4576 124 30.0584 124Z" fill="white"/>
<path d="M39.134 80.2334V77.1357C39.134 75.0949 37.5849 73.3979 35.4511 73.3979H24.662C22.5392 73.3979 20.9901 75.0949 20.9901 77.1357V80.2334H11.2787V83.653H12.2616C12.2616 83.653 12.8388 83.7188 13.1384 84.015C13.438 84.3149 13.555 84.9769 13.555 84.9769L15.5827 110.801C15.7435 113.943 15.7435 114.422 19.4263 114.422H40.7087C44.3916 114.422 44.3916 113.95 44.5523 110.812L46.5801 84.9988C46.5801 84.9988 46.697 84.3259 46.9966 84.026C47.2962 83.7261 47.8735 83.6639 47.8735 83.6639H48.8563V80.2444H39.1449V80.2334H39.134ZM23.2298 77.1357C23.2298 76.1116 24.0628 75.5338 25.1187 75.5338H34.9067C35.9626 75.5338 36.8907 76.1226 36.8907 77.1357V80.2334H23.2298V77.1357ZM22.3237 107.586L21.2239 87.0725H23.3905L24.5122 107.586H22.3237ZM31.2458 107.586H28.8965V87.0725H31.2458V107.586ZM37.8187 107.586H35.6411L36.7628 87.0725H38.9294L37.8187 107.586Z" fill="#CD163F"/>
<path opacity="0.1" d="M41.2421 114.418C41.0704 114.418 40.8914 114.422 40.7014 114.422H19.419C15.7362 114.422 15.7362 113.943 15.5754 110.801L13.5476 84.977C13.5476 84.977 13.4307 84.315 13.1311 84.0151C12.8315 83.7152 12.2543 83.653 12.2543 83.653H11.2714V80.2335H20.9828V77.1358C20.9828 76.6749 21.0668 76.2324 21.2129 75.8228L16.6276 66.9868C6.77382 71.9278 0 82.1243 0 93.9117C0 110.53 13.46 124 30.0584 124C35.2283 124 40.0912 122.694 44.3404 120.39L41.2421 114.418Z" fill="white"/>
<path opacity="0.1" d="M35.6411 107.586L35.8384 104.002L31.2458 95.1515V107.586H28.8965V90.6238L23.5038 80.2334H23.2261V79.6995L21.2129 75.8228C21.0668 76.2324 20.9828 76.6749 20.9828 77.1357V80.2334H11.2714V83.653H12.2542C12.2542 83.653 12.8315 83.7188 13.1311 84.0151C13.4307 84.315 13.5476 84.9769 13.5476 84.9769L15.5754 110.801C15.7362 113.943 15.7362 114.422 19.419 114.422H40.7014C40.8914 114.422 41.0704 114.422 41.2421 114.418L37.6981 107.586H35.6411ZM22.3236 107.586L21.2239 87.0725H23.3905L24.5122 107.586H22.3236Z" fill="white"/>
</g>
<defs>
<clipPath id="clip0_0_1">
<rect width="137" height="124" fill="white"/>
</clipPath>
</defs>
</svg>
