<svg width="18" height="19" viewBox="0 0 18 19" fill="none" xmlns="http://www.w3.org/2000/svg">
<g clip-path="url(#clip0_1_446)">
<path d="M9.28116 11.5768C9.40295 11.7146 9.52392 11.8524 9.65878 12.005C9.60075 12.0107 9.56806 12.0247 9.55416 12.014C9.10706 11.6555 9.11442 11.6605 8.74333 12.1288C8.38778 12.5775 8.10334 13.0778 7.71182 13.5011C7.09308 14.1704 6.41139 14.2393 5.64144 13.6873C4.99817 13.2263 4.82489 12.3921 5.25809 11.681C5.72644 10.9116 6.22503 10.1611 6.71218 9.40317C6.90508 9.10296 6.69992 8.59277 6.34927 8.59934C6.12695 8.60344 6.01579 8.50747 5.90708 8.37869C5.41584 7.7955 4.91725 7.21723 4.45544 6.61026C4.01325 6.02953 3.98709 5.39384 4.35327 4.74421C4.16446 5.35857 4.25273 5.93192 4.56905 6.47328C4.50693 6.06234 4.33284 5.6678 4.45381 5.23472C4.64098 4.56622 4.91807 3.98631 5.72154 3.9535C5.95122 3.94366 5.62345 3.74926 5.84905 3.71645C6.2234 3.66232 6.49803 3.78043 6.71055 4.05275C7.04567 4.48256 7.38978 4.91154 7.6685 5.37826C7.92025 5.80068 8.30196 6.08776 8.61092 6.44949C8.75069 6.61272 8.88883 6.57007 9.01797 6.41258C9.55579 5.75885 10.1533 5.15925 10.7238 4.53587C11.318 3.88706 11.8657 3.19724 12.616 2.71084C12.7084 2.65096 12.8923 2.57796 12.6675 2.41556C12.5547 2.33353 12.7002 2.24659 12.7648 2.19983C13.3361 1.78643 13.7669 1.21473 14.3603 0.821831C14.845 0.500298 15.3362 0.396947 15.8626 0.630716C16.0416 0.710279 16.4069 0.738987 16.2165 1.12778C16.2034 1.15485 16.295 1.23031 16.3309 1.28691C16.7666 1.96606 17.0069 2.66245 16.5173 3.42445C16.4928 3.463 16.5001 3.52206 16.487 3.6131C16.7805 3.51386 16.6652 3.17182 16.9031 3.06354C17.0093 3.21939 16.9415 3.3777 16.8982 3.52288C16.7184 4.12985 16.3742 4.60559 15.8683 5.00505C15.2103 5.5259 14.5303 6.01886 13.8821 6.5553C13.1236 7.1836 12.5449 7.98498 11.7619 8.57801C11.6213 8.68464 11.3426 8.71171 11.3556 8.91185C11.3679 9.0964 11.6417 9.13987 11.7668 9.28095C12.419 10.0151 13.3966 10.2488 14.1404 10.8501C14.7518 11.3447 15.0518 12.11 14.7616 12.6735C14.6349 12.9195 14.5196 12.9482 14.4077 12.6333C14.3235 12.808 14.2581 12.9573 14.1821 13.1008C13.735 13.9375 12.7689 14.2073 11.9392 13.7488C11.394 13.4478 10.978 12.9925 10.5146 12.5955C10.1124 12.2519 9.73235 11.8819 9.34165 11.5235C9.32203 11.5415 9.30159 11.5596 9.28198 11.5784L9.28116 11.5768Z" fill="#FF0000"/>
<path d="M8.92316 18.2117C5.28916 18.0468 2.53464 16.3456 0.859861 12.9835C0.165101 11.5883 -0.0752039 10.0675 0.0196103 8.51893C0.0580265 7.88981 0.147937 7.24428 0.374347 6.63402C0.520655 6.23784 0.65552 5.84495 0.698023 5.40448C0.742978 4.93777 1.22359 4.66381 1.45408 4.26107C2.09163 3.148 2.97847 2.26871 4.0108 1.51491C4.7072 1.00554 5.47634 0.668421 6.28716 0.436294C7.05467 0.21729 7.82626 -0.0115566 8.64526 -7.32854e-05C9.35228 0.00976958 10.0585 0.0163315 10.7532 0.154132C11.22 0.246819 11.4267 0.518318 11.3695 0.916954C11.3123 1.31805 11.0393 1.52147 10.5661 1.46569C9.00163 1.28114 7.46907 1.33528 5.99618 1.97998C3.49586 3.075 1.94532 4.95089 1.36581 7.62569C0.817358 10.1594 1.44182 12.4454 3.11497 14.3443C4.91889 16.3908 7.25083 17.3554 10.0217 17.0281C10.6682 16.9518 11.3417 16.9231 11.9262 16.6245C12.5956 16.2833 13.3075 16.0003 13.8584 15.4467C14.1551 15.1489 14.5687 14.9553 14.8213 14.6305C15.7727 13.4108 16.6268 12.1362 16.8132 10.5293C16.966 9.21039 16.9579 7.91359 16.5304 6.63976C16.3947 6.23538 16.514 5.96306 16.8238 5.86628C17.145 5.76539 17.409 5.94256 17.539 6.35842C18.3441 8.95283 18.1087 11.457 16.7094 13.7775C14.9749 16.6532 12.3594 18.0805 8.92234 18.2101L8.92316 18.2117Z" fill="#FF0000"/>
</g>
<defs>
<clipPath id="clip0_1_446">
<rect width="18" height="18.2118" fill="white"/>
</clipPath>
</defs>
</svg>
