<svg width="18" height="19" viewBox="0 0 18 19" fill="none" xmlns="http://www.w3.org/2000/svg">
<g clip-path="url(#clip0_1_1859)">
<path d="M9.28122 11.5768C9.40301 11.7146 9.52398 11.8524 9.65884 12.005C9.60081 12.0107 9.56812 12.0247 9.55422 12.014C9.10712 11.6555 9.11448 11.6605 8.7434 12.1288C8.38784 12.5775 8.1034 13.0778 7.71188 13.5011C7.09314 14.1704 6.41145 14.2393 5.6415 13.6873C4.99823 13.2263 4.82495 12.3921 5.25815 11.681C5.7265 10.9116 6.2251 10.1611 6.71225 9.40317C6.90514 9.10296 6.69998 8.59277 6.34934 8.59934C6.12701 8.60344 6.01585 8.50747 5.90714 8.37869C5.4159 7.7955 4.91731 7.21723 4.4555 6.61026C4.01331 6.02953 3.98715 5.39384 4.35333 4.74421C4.16452 5.35857 4.2528 5.93192 4.56912 6.47328C4.507 6.06234 4.3329 5.6678 4.45387 5.23472C4.64104 4.56622 4.91813 3.98631 5.7216 3.9535C5.95128 3.94366 5.62352 3.74926 5.84911 3.71645C6.22346 3.66232 6.4981 3.78043 6.71061 4.05275C7.04573 4.48256 7.38984 4.91154 7.66856 5.37826C7.92031 5.80068 8.30202 6.08776 8.61098 6.44949C8.75075 6.61272 8.88889 6.57007 9.01803 6.41258C9.55586 5.75885 10.1533 5.15925 10.7239 4.53587C11.3181 3.88706 11.8657 3.19724 12.6161 2.71084C12.7084 2.65096 12.8923 2.57796 12.6676 2.41556C12.5548 2.33353 12.7003 2.24659 12.7648 2.19983C13.3362 1.78643 13.7669 1.21473 14.3603 0.821831C14.845 0.500298 15.3363 0.396947 15.8626 0.630716C16.0416 0.710279 16.407 0.738987 16.2166 1.12778C16.2035 1.15485 16.295 1.23031 16.331 1.28691C16.7666 1.96606 17.0069 2.66245 16.5173 3.42445C16.4928 3.463 16.5002 3.52206 16.4871 3.6131C16.7805 3.51386 16.6653 3.17182 16.9031 3.06354C17.0094 3.21939 16.9416 3.3777 16.8982 3.52288C16.7184 4.12985 16.3743 4.60559 15.8684 5.00505C15.2104 5.5259 14.5303 6.01886 13.8822 6.5553C13.1237 7.1836 12.545 7.98498 11.7619 8.57801C11.6213 8.68464 11.3426 8.71171 11.3557 8.91185C11.368 9.0964 11.6418 9.13987 11.7668 9.28095C12.4191 10.0151 13.3967 10.2488 14.1405 10.8501C14.7518 11.3447 15.0518 12.11 14.7617 12.6735C14.635 12.9195 14.5197 12.9482 14.4077 12.6333C14.3235 12.808 14.2582 12.9573 14.1821 13.1008C13.735 13.9375 12.7689 14.2073 11.9393 13.7488C11.3941 13.4478 10.9781 12.9925 10.5146 12.5955C10.1125 12.2519 9.73241 11.8819 9.34171 11.5235C9.32209 11.5415 9.30165 11.5596 9.28204 11.5784L9.28122 11.5768Z" fill="#FF0035"/>
<path d="M8.9231 18.2117C5.2891 18.0468 2.53458 16.3456 0.8598 12.9835C0.16504 11.5883 -0.075265 10.0675 0.0195493 8.51893C0.0579654 7.88981 0.147876 7.24428 0.374285 6.63402C0.520594 6.23784 0.655459 5.84495 0.697962 5.40448C0.742917 4.93777 1.22353 4.66381 1.45402 4.26107C2.09157 3.148 2.97841 2.26871 4.01074 1.51491C4.70713 1.00554 5.47627 0.668421 6.2871 0.436294C7.05461 0.21729 7.8262 -0.0115566 8.6452 -7.32854e-05C9.35222 0.00976958 10.0584 0.0163315 10.7532 0.154132C11.2199 0.246819 11.4267 0.518318 11.3695 0.916954C11.3123 1.31805 11.0393 1.52147 10.566 1.46569C9.00157 1.28114 7.46901 1.33528 5.99612 1.97998C3.4958 3.075 1.94526 4.95089 1.36575 7.62569C0.817297 10.1594 1.44176 12.4454 3.11491 14.3443C4.91883 16.3908 7.25077 17.3554 10.0216 17.0281C10.6682 16.9518 11.3417 16.9231 11.9261 16.6245C12.5955 16.2833 13.3074 16.0003 13.8583 15.4467C14.1551 15.1489 14.5686 14.9553 14.8212 14.6305C15.7726 13.4108 16.6268 12.1362 16.8131 10.5293C16.966 9.21039 16.9578 7.91359 16.5303 6.63976C16.3946 6.23538 16.514 5.96306 16.8237 5.86628C17.145 5.76539 17.409 5.94256 17.5389 6.35842C18.344 8.95283 18.1086 11.457 16.7093 13.7775C14.9749 16.6532 12.3593 18.0805 8.92228 18.2101L8.9231 18.2117Z" fill="#FF0035"/>
</g>
<defs>
<clipPath id="clip0_1_1859">
<rect width="18" height="18.2118" fill="white"/>
</clipPath>
</defs>
</svg>
