<svg width="17" height="18" viewBox="0 0 17 18" fill="none" xmlns="http://www.w3.org/2000/svg">
<path d="M8.5 17.5C7.33833 17.5 6.24042 17.2703 5.20625 16.8109C4.17208 16.3516 3.26896 15.7245 2.49688 14.9297C1.72479 14.1349 1.11563 13.2052 0.669375 12.1406C0.223125 11.076 0 9.94583 0 8.75C0 7.53958 0.223125 6.40208 0.669375 5.3375C1.11563 4.27292 1.72479 3.34687 2.49688 2.55938C3.26896 1.77188 4.17208 1.14844 5.20625 0.689062C6.24042 0.229687 7.33833 0 8.5 0C9.67583 0 10.7808 0.229687 11.815 0.689062C12.8492 1.14844 13.7487 1.77188 14.5138 2.55938C15.2788 3.34687 15.8844 4.27292 16.3306 5.3375C16.7769 6.40208 17 7.53958 17 8.75C17 9.94583 16.7769 11.076 16.3306 12.1406C15.8844 13.2052 15.2788 14.1349 14.5138 14.9297C13.7487 15.7245 12.8492 16.3516 11.815 16.8109C10.7808 17.2703 9.67583 17.5 8.5 17.5ZM8.5 16.1875C10.5117 16.1875 12.2188 15.462 13.6213 14.0109C15.0238 12.5599 15.725 10.8062 15.725 8.75C15.725 6.67917 15.0238 4.92188 13.6213 3.47812C12.2188 2.03437 10.5117 1.3125 8.5 1.3125C6.5025 1.3125 4.79896 2.03437 3.38937 3.47812C1.97979 4.92188 1.275 6.67917 1.275 8.75C1.275 10.8062 1.97979 12.5599 3.38937 14.0109C4.79896 15.462 6.5025 16.1875 8.5 16.1875Z" fill="#D9D9D9"/>
</svg>
