<svg width="18" height="18" viewBox="0 0 18 18" fill="none" xmlns="http://www.w3.org/2000/svg">
<g clip-path="url(#clip0_1_437)">
<path d="M9.22924 13.8943C9.14015 13.708 9.264 13.591 9.15898 13.4348C9.07787 13.6081 8.99385 13.7501 8.94388 13.9021C8.81134 14.306 8.52671 14.5557 8.11605 14.6085C7.69526 14.6628 7.37948 14.4409 7.14627 14.1019C6.63277 13.3534 6.11275 12.6092 5.508 11.9277C4.75477 11.0786 3.98488 10.2459 3.15705 9.46599C3.00423 9.32185 2.94702 9.00789 2.78551 8.95723C2.32922 8.81309 2.56244 8.47487 2.4958 8.22441C2.75509 8.16947 2.69425 7.90902 2.80072 7.75632C2.83548 7.70709 3.00568 7.52728 2.72539 7.63003C2.68628 7.6443 2.67759 7.57794 2.69787 7.55296C2.8927 7.3182 2.92674 6.93289 3.33594 6.8965C3.40402 6.89008 3.46993 6.84798 3.53584 6.81943C3.96605 6.63248 4.45637 6.68885 4.77142 7.03064C5.42036 7.7342 6.20328 8.30148 6.8247 9.03072C6.92537 9.14846 7.02532 9.26762 7.1115 9.39535C7.40266 9.8249 7.64963 9.82062 7.91109 9.36752C8.58392 8.20015 9.28718 7.05205 10.0911 5.96603C10.5677 5.32169 11.0203 4.64311 11.6229 4.1215C12.2914 3.54353 12.8455 2.86708 13.4256 2.22275C13.9905 1.59554 14.6061 1.04396 15.2565 0.520219C16.156 -0.204034 16.6167 -0.184054 17.3866 0.652226C17.9051 1.21522 18.1941 1.88667 17.8523 2.65016C17.6908 3.01051 17.4923 3.368 17.1389 3.60632C16.9708 3.71906 16.826 3.86605 16.6746 4.00091C16.4443 4.20642 16.2357 4.42476 15.9388 4.56248C15.6462 4.69876 15.4622 4.98918 15.2536 5.23678C14.3613 6.29355 13.4567 7.34032 12.5673 8.39923C12.0198 9.05142 11.6903 9.8406 11.2231 10.542C10.593 11.4868 10.0158 12.4586 9.50518 13.4704C9.4371 13.6046 9.3415 13.7252 9.23068 13.8943H9.22924Z" fill="white"/>
<path d="M14.9321 9.96263C15.0458 9.27048 14.7698 8.6076 14.6185 7.92616C14.5373 7.56153 14.659 7.31607 14.9574 7.25471C15.2276 7.19976 15.4543 7.38529 15.5723 7.73564C15.7541 8.27437 15.8403 8.82666 15.8932 9.3925C16.3038 13.8165 13.1156 17.4535 9.00618 17.9394C5.20092 18.3896 1.70638 16.2761 0.465721 12.7162C0.0420295 11.501 -0.139035 10.2473 0.120249 8.93226C0.288277 8.08028 0.649682 7.31108 0.892309 6.49478C0.915485 6.41628 0.956768 6.33851 1.00819 6.27429C1.65278 5.47012 2.11993 4.53394 2.92892 3.85179C3.57569 3.30664 4.25504 2.82713 5.07273 2.56669C5.27842 2.50104 5.49859 2.54314 5.71008 2.47036C6.15405 2.31694 6.55529 2.06149 7.05285 2.03295C7.91182 1.98443 8.765 1.96873 9.60442 2.17637C10.1165 2.30267 10.3142 2.58024 10.236 3.01123C10.1628 3.41581 9.82749 3.64343 9.35165 3.60276C8.13055 3.49715 6.92756 3.50643 5.74774 3.92314C3.6387 4.6688 2.22712 6.10304 1.54052 8.1709C1.14652 9.35825 1.0683 10.5841 1.42536 11.8521C1.70058 12.8304 2.11848 13.7152 2.74351 14.4723C3.42794 15.3014 4.31081 15.9365 5.32839 16.3682C6.11349 16.7014 6.93335 16.8862 7.77277 16.9768C8.34928 17.0389 8.92434 16.9169 9.49505 16.8227C9.63484 16.7991 9.81083 16.6172 9.92164 16.8805C9.92671 16.8933 10.0375 16.8783 10.0882 16.8548C10.4706 16.6757 10.945 16.6607 11.2014 16.2533C11.2188 16.2255 11.2586 16.1955 11.289 16.1941C11.93 16.1684 12.1603 15.6097 12.5478 15.2557C12.6115 15.1972 12.6137 15.1937 12.7622 15.2557C12.8259 15.2821 12.8556 15.2415 12.8802 15.2101C13.1077 14.9254 13.519 14.7677 13.4944 14.3017C13.4893 14.1997 13.6175 14.0691 13.7146 13.987C14.0622 13.6938 14.1716 13.2371 14.4895 12.9217C14.5902 12.8218 14.6474 12.6427 14.6568 12.4957C14.7104 11.6552 15.0472 10.8467 14.9313 9.96263H14.9321Z" fill="white"/>
</g>
<defs>
<clipPath id="clip0_1_437">
<rect width="18" height="18" fill="white"/>
</clipPath>
</defs>
</svg>
