<svg width="343" height="221" viewBox="0 0 343 221" fill="none" xmlns="http://www.w3.org/2000/svg">
<g filter="url(#filter0_d_1_290)">
<path fill-rule="evenodd" clip-rule="evenodd" d="M171.5 64C206.57 64 235 35.5701 235 0.5C235 0.333182 234.999 0.166515 234.998 0H333C338.523 0 343 4.47715 343 10V211C343 216.523 338.523 221 333 221H10C4.47716 221 0 216.523 0 211V10C0 4.47715 4.47715 0 10 0H108.002C108.001 0.166515 108 0.333182 108 0.5C108 35.5701 136.43 64 171.5 64Z" fill="#0072BC"/>
</g>
<defs>
<filter id="filter0_d_1_290" x="-15" y="-15" width="373" height="251" filterUnits="userSpaceOnUse" color-interpolation-filters="sRGB">
<feFlood flood-opacity="0" result="BackgroundImageFix"/>
<feColorMatrix in="SourceAlpha" type="matrix" values="0 0 0 0 0 0 0 0 0 0 0 0 0 0 0 0 0 0 127 0" result="hardAlpha"/>
<feOffset/>
<feGaussianBlur stdDeviation="7.5"/>
<feComposite in2="hardAlpha" operator="out"/>
<feColorMatrix type="matrix" values="0 0 0 0 0 0 0 0 0 0 0 0 0 0 0 0 0 0 0.25 0"/>
<feBlend mode="normal" in2="BackgroundImageFix" result="effect1_dropShadow_1_290"/>
<feBlend mode="normal" in="SourceGraphic" in2="effect1_dropShadow_1_290" result="shape"/>
</filter>
</defs>
</svg>
