<svg width="20" height="18" viewBox="0 0 20 18" fill="none" xmlns="http://www.w3.org/2000/svg">
<path d="M0 17.5125C0 17.775 0.230326 18 0.499039 18H4.06909C4.3378 18 4.56813 17.775 4.56813 17.5125V5.9626C4.56813 5.7001 4.3378 5.4751 4.06909 5.4751H0.499039C0.230326 5.4751 0 5.7001 0 5.9626V17.5125Z" fill="#0072FF"/>
<path d="M14.8176 5.3623C13.0902 5.3623 11.8618 6.0373 11.2092 6.7498C11.0557 6.8998 10.7869 6.7873 10.7869 6.5623V5.9623C10.7869 5.6998 10.5566 5.4748 10.2879 5.4748H6.67946C6.41075 5.4748 6.18042 5.6998 6.18042 5.9623C6.21881 8.09979 6.18042 15.4873 6.18042 17.4747C6.18042 17.7372 6.41075 17.9622 6.67946 17.9622H10.3263C10.595 17.9622 10.8253 17.7372 10.8253 17.4747V11.2123C10.8253 10.8373 10.8253 10.4623 10.9405 10.1998C11.2476 9.44979 11.9386 8.66229 13.1286 8.66229C14.7025 8.66229 15.4318 9.82478 15.4318 11.5123V17.4747C15.4318 17.7372 15.6622 17.9622 15.9309 17.9622H19.5009C19.7696 17.9622 20 17.7372 20 17.4747V11.0248C19.9616 7.1623 17.6967 5.3623 14.8176 5.3623Z" fill="#0072FF"/>
<path d="M2.26487 4.08748C3.7236 4.08748 4.60652 3.18748 4.60652 2.06249C4.56813 0.862496 3.7236 0 2.30326 0C0.882916 0 0 0.862496 0 2.02499C0 3.18748 0.882916 4.08748 2.26487 4.08748Z" fill="#0072FF"/>
</svg>
