<svg width="22" height="22" viewBox="0 0 22 22" fill="none" xmlns="http://www.w3.org/2000/svg">
<g clip-path="url(#clip0_1_1759)">
<path d="M21.6992 19.0223L17.4152 14.7383C17.2219 14.5449 16.9598 14.4375 16.6848 14.4375H15.9844C17.1703 12.9207 17.875 11.0129 17.875 8.9375C17.875 4.00039 13.8746 0 8.9375 0C4.00039 0 0 4.00039 0 8.9375C0 13.8746 4.00039 17.875 8.9375 17.875C11.0129 17.875 12.9207 17.1703 14.4375 15.9844V16.6848C14.4375 16.9598 14.5449 17.2219 14.7383 17.4152L19.0223 21.6992C19.4262 22.1031 20.0793 22.1031 20.4789 21.6992L21.6949 20.4832C22.0988 20.0793 22.0988 19.4262 21.6992 19.0223ZM8.9375 14.4375C5.89961 14.4375 3.4375 11.9797 3.4375 8.9375C3.4375 5.89961 5.89531 3.4375 8.9375 3.4375C11.9754 3.4375 14.4375 5.89531 14.4375 8.9375C14.4375 11.9754 11.9797 14.4375 8.9375 14.4375Z" fill="#0072BC"/>
<path d="M18.5539 8.71406L18.3734 8.53574C18.3484 8.54362 18.3231 8.54954 18.2977 8.55349C18.2723 8.55741 18.246 8.55938 18.2188 8.55938C18.1106 8.55938 18.0143 8.52948 17.9298 8.4697C17.8453 8.40989 17.784 8.33236 17.7461 8.23711C17.7611 8.19915 17.7801 8.16388 17.803 8.13128C17.8259 8.09871 17.8521 8.06953 17.8814 8.04375L17.7633 7.92344L17.8234 7.86328L18.6141 8.65391L18.5539 8.71406ZM18.2188 8.43047C18.2266 8.43047 18.234 8.43011 18.2408 8.42939C18.2476 8.42868 18.2549 8.42725 18.2628 8.4251L18.0308 8.19307C18.0286 8.20094 18.0272 8.20829 18.0265 8.21511C18.0257 8.2219 18.0254 8.22923 18.0254 8.23711C18.0254 8.29082 18.0442 8.33648 18.0818 8.37409C18.1194 8.41168 18.165 8.43047 18.2188 8.43047ZM18.5324 8.4498L18.396 8.31445C18.401 8.30228 18.4049 8.28993 18.4078 8.27741C18.4107 8.26487 18.4121 8.25143 18.4121 8.23711C18.4121 8.1834 18.3933 8.13774 18.3557 8.10012C18.3181 8.06254 18.2725 8.04375 18.2188 8.04375C18.2044 8.04375 18.191 8.04518 18.1784 8.04805C18.1659 8.05091 18.1536 8.05521 18.1414 8.06094L18.0318 7.95137C18.0612 7.93919 18.0913 7.93005 18.1221 7.92395C18.1529 7.91788 18.1851 7.91484 18.2188 7.91484C18.3269 7.91484 18.4232 7.94474 18.5077 8.00452C18.5922 8.06433 18.6535 8.14186 18.6914 8.23711C18.6749 8.27936 18.6533 8.31858 18.6264 8.35476C18.5996 8.39091 18.5682 8.42259 18.5324 8.4498ZM18.3337 8.25215L18.2048 8.12324C18.2248 8.11966 18.2433 8.12127 18.2601 8.12805C18.2769 8.13487 18.2914 8.14473 18.3036 8.15762C18.3158 8.17051 18.3246 8.18537 18.33 8.20222C18.3353 8.21903 18.3366 8.23568 18.3337 8.25215Z" fill="#0072BC"/>
</g>
<defs>
<clipPath id="clip0_1_1759">
<rect width="22" height="22" fill="white"/>
</clipPath>
</defs>
</svg>
