<svg width="283" height="89" viewBox="0 0 283 89" fill="none" xmlns="http://www.w3.org/2000/svg">
<g filter="url(#filter0_d_1_74)">
<path d="M117.204 54.4168H111.951V55.4692H127.979V54.4168H122.726V7.20674C121.413 8.72026 119.308 8.85057 117.214 8.85057H111.961V9.90302H117.214V54.4268L117.204 54.4168Z" fill="white"/>
<path d="M131.487 50.4075C131.487 54.7376 134.504 56.2511 139.105 56.2511C143.966 56.2511 145.87 52.8332 146.331 51.2595L145.349 51.059C144.958 52.1716 143.515 55.1987 140.227 55.1987C138.122 55.1987 137.01 54.3467 137.01 51.6504V29.589H146.071V28.5366H137.01V19.3451H136.218C135.105 25.7801 132.609 28.6669 125.774 28.5366V29.589H131.487V50.4075Z" fill="white"/>
<path fill-rule="evenodd" clip-rule="evenodd" d="M169.074 34.721C169.074 29.6692 163.161 27.1032 158.169 27.1032C151.604 27.1032 148.055 30.7818 148.055 34.1296C148.055 36.3648 149.108 37.8082 150.942 37.8082C152.646 37.8082 153.959 36.6254 153.959 35.0517C153.959 32.0948 151.794 32.8165 151.794 31.2429C151.794 28.8773 156.265 28.1557 158.159 28.1557C160.655 28.1557 163.542 28.8773 163.542 31.9645V40.0434H162.289C155.523 40.0434 145.74 41.8776 145.74 49.2348C145.74 53.6952 148.827 56.2612 153.949 56.2612C158.279 56.2612 161.236 55.1486 163.471 52.1917H163.602C164.063 54.487 166.288 56.2612 169.375 56.2612C172.202 56.2612 173.906 54.8779 175.159 52.7129L174.437 52.1917C173.455 53.5749 172.533 54.8178 171.019 54.8178C169.245 54.8178 169.044 53.174 169.044 51.9311V34.731L169.074 34.721ZM163.552 41.0858V49.6858C163.552 50.9989 161.387 54.6775 156.455 54.6775C152.255 54.6775 151.664 51.921 151.664 48.2425C151.664 41.2161 157.638 41.0858 162.429 41.0858H163.542H163.552Z" fill="white"/>
<path fill-rule="evenodd" clip-rule="evenodd" d="M174.828 32.3553C174.828 45.8167 184.48 56.5216 195.576 56.5216C206.672 56.5216 216.325 45.8167 216.325 32.3553C216.325 18.894 206.672 8.18901 195.576 8.18901C184.48 8.18901 174.828 18.894 174.828 32.3553ZM182.315 32.3553C182.315 23.7553 183.889 9.24146 195.576 9.24146C207.263 9.24146 208.837 23.7553 208.837 32.3553C208.837 40.9554 207.263 55.4692 195.576 55.4692C183.889 55.4692 182.315 40.9554 182.315 32.3553Z" fill="#CD163F"/>
<path d="M221.356 54.4168H216.164V55.4693H231.861V54.4168H226.869V35.8937C228.052 33.6585 230.878 28.1456 236.391 28.1456C238.496 28.1456 240.27 29.3284 240.27 32.9368V54.4068H235.078V55.4593H250.965V54.4068H245.773V34.5105C245.773 30.6314 243.809 27.0932 236.782 27.0932C231.991 27.0932 228.703 30.6414 226.999 33.7888H226.869V27.0932C225.686 28.5365 224.504 28.5365 221.356 28.5365H216.164V29.589H221.356V54.4068V54.4168Z" fill="#CD163F"/>
<path fill-rule="evenodd" clip-rule="evenodd" d="M256.659 39.1212H273.799C274.189 39.1212 274.39 38.9207 274.39 38.5298C274.39 35.7734 270.381 27.1032 262.633 27.1032C255.476 27.1032 250.354 35.3123 250.354 41.6772C250.354 50.3474 255.736 56.2511 263.424 56.2511C269.468 56.2511 273.929 52.1817 274.981 46.1376H273.929C273.007 51.5201 268.937 55.1987 263.424 55.1987C257.25 55.1987 256.598 49.9464 256.659 45.2856V39.1112V39.1212ZM268.085 37.6077C268.085 37.8683 267.955 38.0688 267.624 38.0688H256.659V36.2345C256.659 32.0347 258.042 28.1557 262.633 28.1557C266.963 28.1557 268.085 32.0247 268.085 36.2345V37.6177V37.6077Z" fill="#CD163F"/>
<path d="M17.0802 76.6587C14.4641 76.789 11.7278 76.6787 9.63289 74.8945C8.6105 74.0325 8.03917 72.9801 8.01912 71.6169C7.99908 70.2136 8.67064 68.9206 9.66296 67.9684C8.98137 69.3917 8.57041 70.9955 9.45247 72.4388C10.2744 73.7819 11.7578 74.5838 13.2613 74.9246C15.707 75.4759 18.1126 74.9647 20.4882 74.3834C24.6479 73.361 28.6773 71.8374 32.5563 70.0332C41.1463 66.0339 49.0848 60.6914 56.5422 54.8779C64.19 48.924 71.3868 42.3888 78.2628 35.5629C84.1365 29.7293 89.7897 23.6551 95.2224 17.4106C98.5401 13.5917 101.798 9.71264 104.925 5.74339C105.376 5.16203 105.827 4.5907 106.278 4.00934C106.278 6.96624 106.278 9.9131 106.278 12.87C106.278 19.6759 106.278 26.4717 106.288 33.2776C106.288 40.8452 106.288 48.4128 106.298 55.9805C106.298 61.2227 106.298 66.4649 106.298 71.7171C106.298 71.8374 106.298 74.0826 106.298 74.0826H114.648C115.008 74.0826 114.808 74.9647 114.808 75.2454C114.808 75.3656 114.828 76.7489 114.788 76.7489H81.0594C81.0594 76.7489 81.0594 74.9547 81.0594 74.8144C81.0594 74.4034 80.8789 74.0927 81.3099 74.0927C81.8612 74.0927 82.4125 74.0927 82.9638 74.0927C84.788 74.0927 86.6223 74.0826 88.4466 74.0826C89.6995 74.0826 90.9624 74.0826 92.2153 74.0826C92.3857 74.0826 92.2955 73.4111 92.2955 73.2708V34.741C89.6293 37.0463 86.8829 39.2515 84.1165 41.4265C77.5612 46.5786 70.8155 51.49 63.8492 56.0807C55.58 61.5334 46.9899 66.5852 37.9188 70.5845C31.3034 73.5013 24.287 75.967 17.0502 76.6587" fill="white"/>
<path d="M72.4493 59.8595L72.3591 58.5665L274.901 58.356V63.2574L72.4493 59.8595Z" fill="#0072BC"/>
<path d="M117.695 65.7431V67.6676H119.85V68.3392H117.695V71.5467H116.973V65.0716H119.92V65.7431H117.695Z" fill="white"/>
<path d="M124.44 65.0716H127.798V65.7431H125.162V67.6676H127.718V68.3392H125.162V70.8851H127.798V71.5467H124.44V65.0716Z" fill="white"/>
<path d="M133.111 70.8851V65.7532H133.632C134.394 65.7532 135.045 65.8534 135.637 66.3846C136.198 66.8758 136.479 67.5874 136.479 68.3292C136.479 69.0709 136.208 69.7324 135.667 70.2236C135.075 70.7849 134.414 70.8951 133.622 70.8951H133.101L133.111 70.8851ZM132.389 71.5467H133.592C134.604 71.5467 135.376 71.4164 136.148 70.7348C136.859 70.1033 137.2 69.2613 137.2 68.3191C137.2 67.3769 136.869 66.4949 136.128 65.8534C135.366 65.2019 134.574 65.0716 133.602 65.0716H132.379V71.5467H132.389Z" fill="white"/>
<path d="M141.58 65.0716H144.928V65.7431H142.292V67.6676H144.858V68.3392H142.292V70.8851H144.928V71.5467H141.58V65.0716Z" fill="white"/>
<path d="M150.241 65.7432H150.451C151.323 65.7432 152.105 65.8434 152.105 66.9159C152.105 67.9182 151.283 68.0786 150.461 68.0786H150.241V65.7432ZM150.241 68.7101H150.421L152.386 71.5567H153.268L151.203 68.66C152.205 68.5697 152.827 67.8681 152.827 66.8758C152.827 65.4124 151.684 65.0916 150.451 65.0916H149.519V71.5667H150.241V68.7201V68.7101Z" fill="white"/>
<path d="M160.996 69.0408H158.811L159.913 66.4447L160.996 69.0408ZM161.276 69.7123L162.038 71.5466H162.84L159.933 64.7708L156.946 71.5466H157.738L158.52 69.7123H161.286H161.276Z" fill="white"/>
<path d="M167.631 70.8851H169.415V71.5467H166.909V65.0716H167.631V70.8851Z" fill="white"/>
<path d="M184.44 66.495C183.929 65.9638 183.217 65.633 182.466 65.633C181.022 65.633 179.86 66.8859 179.86 68.3093C179.86 69.7326 181.032 70.9855 182.486 70.9855C183.217 70.9855 183.929 70.6447 184.44 70.1235V71.0156C183.879 71.4165 183.197 71.647 182.506 71.647C180.682 71.647 179.128 70.1636 179.128 68.3293C179.128 66.495 180.641 64.9615 182.506 64.9615C183.227 64.9615 183.859 65.1619 184.44 65.5929V66.485V66.495Z" fill="white"/>
<path d="M189.743 65.7432H189.953C190.825 65.7432 191.607 65.8434 191.607 66.9159C191.607 67.9182 190.785 68.0786 189.963 68.0786H189.743V65.7432ZM189.743 68.7101H189.923L191.878 71.5567H192.76L190.695 68.66C191.687 68.5697 192.319 67.8681 192.319 66.8758C192.319 65.4124 191.176 65.0916 189.943 65.0916H189.011V71.5667H189.733V68.7201L189.743 68.7101Z" fill="white"/>
<path d="M197.03 65.0716H200.387V65.7431H197.751V67.6676H200.317V68.3392H197.751V70.8851H200.387V71.5467H197.03V65.0716Z" fill="white"/>
<path d="M205.7 70.8851V65.7532H206.221C206.983 65.7532 207.634 65.8534 208.226 66.3846C208.787 66.8758 209.068 67.5874 209.068 68.3292C209.068 69.0709 208.787 69.7324 208.256 70.2236C207.664 70.7849 207.003 70.8951 206.211 70.8951H205.69L205.7 70.8851ZM204.978 71.5467H206.181C207.193 71.5467 207.965 71.4164 208.737 70.7348C209.449 70.1033 209.789 69.2613 209.789 68.3191C209.789 67.3769 209.459 66.4949 208.717 65.8534C207.955 65.2019 207.163 65.0716 206.191 65.0716H204.968V71.5467H204.978Z" fill="white"/>
<path d="M214.911 65.0716H214.19V71.5467H214.911V65.0716Z" fill="white"/>
<path d="M221.296 71.5467H220.585V65.7431H219.021V65.0716H222.88V65.7431H221.296V71.5467Z" fill="white"/>
<path d="M233.695 68.9306C233.695 69.4117 233.675 69.963 233.976 70.3739C234.256 70.7649 234.808 70.9954 235.279 70.9954C235.75 70.9954 236.251 70.7849 236.552 70.4241C236.893 70.0131 236.872 69.4418 236.872 68.9406V65.0916H237.594V69.1411C237.594 69.8427 237.544 70.404 237.023 70.9353C236.572 71.4164 235.93 71.667 235.279 71.667C234.667 71.667 234.036 71.4364 233.605 71.0054C233.044 70.4642 232.973 69.8728 232.973 69.131V65.0816H233.695V68.9306Z" fill="white"/>
<path d="M242.285 64.8009L247.327 70.0933V65.0816H248.049V71.8373L243.007 66.565V71.5466H242.285V64.8009Z" fill="white"/>
<path d="M253.501 65.0716H252.78V71.5467H253.501V65.0716Z" fill="white"/>
<path d="M261.229 65.633C262.713 65.633 263.875 66.8459 263.875 68.3093C263.875 69.7727 262.693 70.9855 261.229 70.9855C259.766 70.9855 258.573 69.7627 258.573 68.3093C258.573 66.8559 259.736 65.633 261.229 65.633ZM261.229 64.9715C259.385 64.9715 257.851 66.475 257.851 68.3293C257.851 70.1836 259.375 71.6671 261.229 71.6671C263.084 71.6671 264.597 70.1937 264.597 68.3293C264.597 66.465 263.074 64.9715 261.229 64.9715Z" fill="white"/>
<path d="M268.987 64.8009L274.029 70.0933V65.0816H274.751V71.8373L269.709 66.565V71.5466H268.987V64.8009Z" fill="white"/>
</g>
<defs>
<filter id="filter0_d_1_74" x="0" y="0" width="283" height="88.777" filterUnits="userSpaceOnUse" color-interpolation-filters="sRGB">
<feFlood flood-opacity="0" result="BackgroundImageFix"/>
<feColorMatrix in="SourceAlpha" type="matrix" values="0 0 0 0 0 0 0 0 0 0 0 0 0 0 0 0 0 0 127 0" result="hardAlpha"/>
<feOffset dy="4"/>
<feGaussianBlur stdDeviation="4"/>
<feComposite in2="hardAlpha" operator="out"/>
<feColorMatrix type="matrix" values="0 0 0 0 0 0 0 0 0 0 0 0 0 0 0 0 0 0 0.5 0"/>
<feBlend mode="normal" in2="BackgroundImageFix" result="effect1_dropShadow_1_74"/>
<feBlend mode="normal" in="SourceGraphic" in2="effect1_dropShadow_1_74" result="shape"/>
</filter>
</defs>
</svg>
