<svg width="267" height="73" viewBox="0 0 267 73" fill="none" xmlns="http://www.w3.org/2000/svg">
<path d="M109.2 50.4145H103.947V51.4671H119.977V50.4145H114.724V3.19784C113.411 4.71158 111.305 4.8419 109.21 4.8419H103.957V5.8945H109.21V50.4245L109.2 50.4145Z" fill="#0D2D6C"/>
<path d="M123.485 46.4047C123.485 50.7354 126.503 52.2491 131.104 52.2491C135.966 52.2491 137.871 48.8307 138.332 47.2568L137.35 47.0563C136.959 48.169 135.515 51.1965 132.227 51.1965C130.122 51.1965 129.009 50.3444 129.009 47.6477V25.5832H138.071V24.5306H129.009V15.3379H128.217C127.104 21.7738 124.608 24.661 117.771 24.5306V25.5832H123.485V46.4047Z" fill="#0D2D6C"/>
<path fill-rule="evenodd" clip-rule="evenodd" d="M161.078 30.7159C161.078 25.6634 155.164 23.0971 150.171 23.0971C143.605 23.0971 140.056 26.7762 140.056 30.1245C140.056 32.36 141.109 33.8035 142.944 33.8035C144.648 33.8035 145.961 32.6206 145.961 31.0467C145.961 28.0894 143.796 28.8112 143.796 27.2373C143.796 24.8715 148.267 24.1497 150.161 24.1497C152.658 24.1497 155.545 24.8715 155.545 27.9591V36.0391H154.292C147.525 36.0391 137.741 37.8736 137.741 45.2318C137.741 49.6928 140.828 52.2591 145.951 52.2591C150.282 52.2591 153.239 51.1464 155.474 48.1891H155.605C156.066 50.4848 158.291 52.2591 161.379 52.2591C164.206 52.2591 165.91 50.8757 167.163 48.7104L166.442 48.1891C165.459 49.5725 164.537 50.8156 163.023 50.8156C161.249 50.8156 161.048 49.1715 161.048 47.9284V30.7259L161.078 30.7159ZM155.555 37.0816V45.6829C155.555 46.9961 153.389 50.6752 148.457 50.6752C144.257 50.6752 143.665 47.9184 143.665 44.2393C143.665 37.212 149.64 37.0816 154.432 37.0816H155.545H155.555Z" fill="#0D2D6C"/>
<path fill-rule="evenodd" clip-rule="evenodd" d="M166.833 28.35C166.833 41.8132 176.486 52.5197 187.584 52.5197C198.681 52.5197 208.335 41.8132 208.335 28.35C208.335 14.8867 198.681 4.18025 187.584 4.18025C176.486 4.18025 166.833 14.8867 166.833 28.35ZM174.321 28.35C174.321 19.7487 175.895 5.23285 187.584 5.23285C199.273 5.23285 200.847 19.7487 200.847 28.35C200.847 36.9512 199.273 51.4671 187.584 51.4671C175.895 51.4671 174.321 36.9512 174.321 28.35Z" fill="#CD163F"/>
<path d="M213.367 50.4146H208.175V51.4672H223.873V50.4146H218.881V31.8888C220.064 29.6533 222.891 24.1397 228.405 24.1397C230.51 24.1397 232.284 25.3226 232.284 28.9315V50.4045H227.091V51.4571H242.981V50.4045H237.788V30.5054C237.788 26.6258 235.823 23.0871 228.796 23.0871C224.004 23.0871 220.716 26.6358 219.011 29.7836H218.881V23.0871C217.698 24.5306 216.515 24.5306 213.367 24.5306H208.175V25.5832H213.367V50.4045V50.4146Z" fill="#CD163F"/>
<path fill-rule="evenodd" clip-rule="evenodd" d="M248.675 35.1168H265.817C266.208 35.1168 266.409 34.9163 266.409 34.5253C266.409 31.7685 262.399 23.0971 254.649 23.0971C247.492 23.0971 242.369 31.3074 242.369 37.6731C242.369 46.3445 247.752 52.2491 255.441 52.2491C261.486 52.2491 265.947 48.1791 267 42.1341H265.947C265.025 47.5174 260.955 51.1965 255.441 51.1965C249.266 51.1965 248.615 45.9435 248.675 41.282V35.1068V35.1168ZM260.103 33.603C260.103 33.8637 259.973 34.0642 259.642 34.0642H248.675V32.2297C248.675 28.0293 250.058 24.1497 254.649 24.1497C258.98 24.1497 260.103 28.0193 260.103 32.2297V33.6131V33.603Z" fill="#CD163F"/>
<path d="M9.06282 72.6595C6.44636 72.7898 3.7096 72.6795 1.61442 70.8951C0.591898 70.033 0.0204865 68.9804 0.000436995 67.617C-0.0196125 66.2136 0.652047 64.9204 1.6445 63.968C0.962814 65.3915 0.551799 66.9955 1.43398 68.4391C2.25601 69.7824 3.73967 70.5844 5.24339 70.9252C7.68943 71.4766 10.0954 70.9653 12.4712 70.3839C16.6315 69.3613 20.6615 67.8376 24.5411 66.0331C33.1323 62.0332 41.0719 56.69 48.5303 50.8757C56.1792 44.921 63.377 38.3848 70.254 31.558C76.1285 25.7235 81.7825 19.6485 87.2159 13.4031C90.5341 9.58367 93.7921 5.70409 96.9198 1.73428C97.371 1.15285 97.8221 0.581436 98.2732 0C98.2732 2.95731 98.2732 5.90459 98.2732 8.86189C98.2732 15.6687 98.2732 22.4655 98.2832 29.2723C98.2832 36.841 98.2832 44.4097 98.2932 51.9784C98.2932 57.2214 98.2932 62.4643 98.2932 67.7173C98.2932 67.8376 98.2932 70.0831 98.2932 70.0831H106.644C107.005 70.0831 106.804 70.9653 106.804 71.246C106.804 71.3663 106.824 72.7497 106.784 72.7497H73.0509C73.0509 72.7497 73.0509 70.9553 73.0509 70.8149C73.0509 70.4039 72.8704 70.0931 73.3015 70.0931C73.8529 70.0931 74.4042 70.0931 74.9556 70.0931C76.7801 70.0931 78.6146 70.0831 80.4391 70.0831C81.6922 70.0831 82.9554 70.0831 84.2084 70.0831C84.3789 70.0831 84.2886 69.4115 84.2886 69.2711V30.7359C81.6221 33.0416 78.8753 35.2471 76.1084 37.4224C69.5522 42.5752 62.8056 47.4873 55.8384 52.0786C47.5679 57.5321 38.9767 62.5846 29.9043 66.5845C23.288 69.5017 16.2706 71.9678 9.03275 72.6595" fill="#0D2D6C"/>
<path d="M64.4396 55.858L64.3494 54.5648L266.92 54.3542V59.2563L64.4396 55.858Z" fill="#0072BC"/>
<path d="M109.691 61.7424V63.6672H111.847V64.3389H109.691V67.5468H108.97V61.0708H111.917V61.7424H109.691Z" fill="#0D2D6C"/>
<path d="M116.438 61.0708H119.796V61.7424H117.16V63.6672H119.716V64.3389H117.16V66.8851H119.796V67.5468H116.438V61.0708Z" fill="#0D2D6C"/>
<path d="M125.109 66.8851V61.7525H125.631C126.393 61.7525 127.044 61.8527 127.636 62.384C128.197 62.8752 128.478 63.587 128.478 64.3288C128.478 65.0707 128.207 65.7323 127.666 66.2235C127.074 66.7849 126.413 66.8952 125.621 66.8952H125.099L125.109 66.8851ZM124.388 67.5468H125.591C126.603 67.5468 127.375 67.4165 128.147 66.7348C128.859 66.1032 129.2 65.2611 129.2 64.3188C129.2 63.3765 128.869 62.4943 128.127 61.8527C127.365 61.2011 126.573 61.0708 125.601 61.0708H124.378V67.5468H124.388Z" fill="#0D2D6C"/>
<path d="M133.58 61.0708H136.929V61.7424H134.292V63.6672H136.859V64.3389H134.292V66.8851H136.929V67.5468H133.58V61.0708Z" fill="#0D2D6C"/>
<path d="M142.242 61.7425H142.452C143.324 61.7425 144.106 61.8427 144.106 62.9154C144.106 63.9178 143.284 64.0782 142.462 64.0782H142.242V61.7425ZM142.242 64.7098H142.422L144.387 67.5568H145.269L143.204 64.6597C144.207 64.5694 144.828 63.8677 144.828 62.8753C144.828 61.4116 143.685 61.0908 142.452 61.0908H141.52V67.5668H142.242V64.7198V64.7098Z" fill="#0D2D6C"/>
<path d="M152.998 65.0405H150.813L151.916 62.4441L152.998 65.0405ZM153.279 65.7122L154.041 67.5467H154.843L151.936 60.77L148.948 67.5467H149.74L150.522 65.7122H153.289H153.279Z" fill="#0D2D6C"/>
<path d="M159.635 66.8851H161.419V67.5468H158.913V61.0708H159.635V66.8851Z" fill="#0D2D6C"/>
<path d="M176.446 62.4944C175.935 61.9631 175.223 61.6323 174.471 61.6323C173.028 61.6323 171.865 62.8854 171.865 64.3089C171.865 65.7324 173.038 66.9855 174.491 66.9855C175.223 66.9855 175.935 66.6447 176.446 66.1234V67.0156C175.885 67.4166 175.203 67.6472 174.512 67.6472C172.687 67.6472 171.133 66.1635 171.133 64.329C171.133 62.4944 172.647 60.9606 174.512 60.9606C175.233 60.9606 175.865 61.1611 176.446 61.5922V62.4844V62.4944Z" fill="#0D2D6C"/>
<path d="M181.749 61.7425H181.96C182.832 61.7425 183.614 61.8427 183.614 62.9154C183.614 63.9178 182.792 64.0782 181.97 64.0782H181.749V61.7425ZM181.749 64.7098H181.93L183.885 67.5568H184.767L182.702 64.6597C183.694 64.5694 184.326 63.8677 184.326 62.8753C184.326 61.4116 183.183 61.0908 181.95 61.0908H181.018V67.5668H181.739V64.7198L181.749 64.7098Z" fill="#0D2D6C"/>
<path d="M189.037 61.0708H192.396V61.7424H189.759V63.6672H192.326V64.3389H189.759V66.8851H192.396V67.5468H189.037V61.0708Z" fill="#0D2D6C"/>
<path d="M197.709 66.8851V61.7525H198.23C198.992 61.7525 199.644 61.8527 200.235 62.384C200.796 62.8752 201.077 63.587 201.077 64.3288C201.077 65.0707 200.796 65.7323 200.265 66.2235C199.674 66.7849 199.012 66.8952 198.22 66.8952H197.699L197.709 66.8851ZM196.987 67.5468H198.19C199.203 67.5468 199.974 67.4165 200.746 66.7348C201.458 66.1032 201.799 65.2611 201.799 64.3188C201.799 63.3765 201.468 62.4943 200.726 61.8527C199.964 61.2011 199.172 61.0708 198.2 61.0708H196.977V67.5468H196.987Z" fill="#0D2D6C"/>
<path d="M206.922 61.0708H206.2V67.5468H206.922V61.0708Z" fill="#0D2D6C"/>
<path d="M213.307 67.5468H212.596V61.7424H211.032V61.0708H214.891V61.7424H213.307V67.5468Z" fill="#0D2D6C"/>
<path d="M225.708 64.9303C225.708 65.4115 225.688 65.9629 225.989 66.3739C226.269 66.7649 226.821 66.9954 227.292 66.9954C227.763 66.9954 228.264 66.7849 228.565 66.424C228.906 66.013 228.886 65.4416 228.886 64.9404V61.0908H229.608V65.1408C229.608 65.8426 229.557 66.404 229.036 66.9353C228.585 67.4165 227.943 67.6671 227.292 67.6671C226.68 67.6671 226.049 67.4365 225.618 67.0054C225.056 66.4641 224.986 65.8727 224.986 65.1308V61.0808H225.708V64.9303Z" fill="#0D2D6C"/>
<path d="M234.299 60.8001L239.342 66.0932V61.0808H240.063V67.8375L235.021 62.5644V67.5468H234.299V60.8001Z" fill="#0D2D6C"/>
<path d="M245.517 61.0708H244.795V67.5468H245.517V61.0708Z" fill="#0D2D6C"/>
<path d="M253.246 61.6323C254.73 61.6323 255.893 62.8453 255.893 64.3089C255.893 65.7725 254.71 66.9855 253.246 66.9855C251.782 66.9855 250.589 65.7625 250.589 64.3089C250.589 62.8553 251.752 61.6323 253.246 61.6323ZM253.246 60.9707C251.401 60.9707 249.868 62.4744 249.868 64.329C249.868 66.1836 251.391 67.6672 253.246 67.6672C255.101 67.6672 256.614 66.1936 256.614 64.329C256.614 62.4644 255.091 60.9707 253.246 60.9707Z" fill="#0D2D6C"/>
<path d="M261.005 60.8001L266.048 66.0932V61.0808H266.769V67.8375L261.727 62.5644V67.5468H261.005V60.8001Z" fill="#0D2D6C"/>
</svg>
