<svg width="20" height="20" viewBox="0 0 20 20" fill="none" xmlns="http://www.w3.org/2000/svg">
<path fill-rule="evenodd" clip-rule="evenodd" d="M4.09672 10.0001C4.09672 9.35054 4.20453 8.72773 4.39719 8.14366L1.02687 5.57007C0.37 6.90366 0 8.40648 0 10.0001C0 11.5924 0.369687 13.0941 1.02547 14.4269L4.39391 11.8484C4.20312 11.2669 4.09672 10.6465 4.09672 10.0001Z" fill="#FBBC05"/>
<path fill-rule="evenodd" clip-rule="evenodd" d="M10.0142 4.09094C11.4253 4.09094 12.6998 4.59094 13.7012 5.40906L16.6144 2.5C14.8392 0.954531 12.5633 0 10.0142 0C6.0567 0 2.65545 2.26312 1.02686 5.57L4.39701 8.14359C5.17357 5.78641 7.38717 4.09094 10.0142 4.09094Z" fill="#EA4335"/>
<path fill-rule="evenodd" clip-rule="evenodd" d="M10.0142 15.9091C7.38732 15.9091 5.17373 14.2136 4.39717 11.8564L1.02686 14.4296C2.65545 17.7369 6.0567 20 10.0142 20C12.4567 20 14.7887 19.1327 16.5389 17.5077L13.3398 15.0346C12.4372 15.6032 11.3004 15.9091 10.0142 15.9091Z" fill="#34A853"/>
<path fill-rule="evenodd" clip-rule="evenodd" d="M19.5731 10C19.5731 9.40907 19.482 8.77267 19.3455 8.18188H10.0142V12.0455H15.3855C15.1169 13.3628 14.3859 14.3755 13.3398 15.0345L16.5389 17.5077C18.3773 15.8014 19.5731 13.2595 19.5731 10Z" fill="#4285F4"/>
</svg>
