<svg width="39" height="38" viewBox="0 0 39 38" fill="none" xmlns="http://www.w3.org/2000/svg">
<path d="M18.1112 28.5H21.0246V20.615H29.1333V17.765H21.0246V9.5H18.1112V17.765H9.71111V20.615H18.1112V28.5ZM19.4351 38C16.757 38 14.2402 37.5013 11.8847 36.5038C9.52929 35.5063 7.46946 34.1446 5.70528 32.4188C3.94109 30.6929 2.54917 28.6767 1.5295 26.3701C0.509833 24.0635 0 21.5989 0 18.9763C0 16.3537 0.509833 13.889 1.5295 11.5824C2.54917 9.27582 3.94109 7.2675 5.70528 5.5575C7.46946 3.8475 9.5305 2.49375 11.8884 1.49625C14.2463 0.49875 16.7656 0 19.4465 0C22.1274 0 24.6468 0.49875 27.0046 1.49625C29.3625 2.49375 31.4154 3.8475 33.1634 5.5575C34.9114 7.2675 36.2953 9.27833 37.3149 11.59C38.3346 13.9017 38.8444 16.3675 38.8444 18.9874C38.8444 21.6073 38.3346 24.0694 37.3149 26.3736C36.2953 28.6779 34.9114 30.69 33.1634 32.41C31.4154 34.13 29.3599 35.4917 26.9969 36.495C24.6339 37.4983 22.1133 38 19.4351 38Z" fill="white"/>
</svg>
