<svg width="25" height="17" viewBox="0 0 25 17" fill="none" xmlns="http://www.w3.org/2000/svg">
<g clip-path="url(#clip0_1_1818)">
<path d="M0 0H25V17H0V0Z" fill="white"/>
<path d="M0 0H25V1.30731H0V0ZM0 2.61462H25V3.92193H0V2.61462ZM0 5.22924H25V6.53655H0V5.22924ZM0 7.84386H25V9.15117H0V7.84386ZM0 10.4635H25V11.7708H0V10.4635ZM0 13.0781H25V14.3854H0V13.0781ZM0 15.6927H25V17H0V15.6927Z" fill="#D80027"/>
<path d="M0 0H12.5V9.15117H0V0Z" fill="#2E52B2"/>
<path d="M2.32949 6.90439L2.13456 6.26813L1.92013 6.90439H1.27686L1.7983 7.28714L1.60337 7.9234L2.13456 7.53071L2.65112 7.9234L2.45132 7.28714L2.98251 6.90439H2.32949ZM5.07315 6.90439L4.87335 6.26813L4.66867 6.90439H4.02539L4.54684 7.28714L4.3519 7.9234L4.87335 7.53071L5.39966 7.9234L5.20473 7.28714L5.72617 6.90439H5.07315ZM7.82656 6.90439L7.61701 6.26813L7.42208 6.90439H6.76419L7.30025 7.28714L7.09557 7.9234L7.61701 7.53071L8.15307 7.9234L7.9484 7.28714L8.46984 6.90439H7.82656ZM10.5654 6.90439L10.3704 6.26813L10.1657 6.90439H9.5176L10.0439 7.28714L9.84898 7.9234L10.3704 7.53071L10.8967 7.9234L10.6872 7.28714L11.2233 6.90439H10.5654ZM4.87335 3.74299L4.66867 4.37925H4.02539L4.54684 4.77194L4.3519 5.39825L4.87335 5.01053L5.39966 5.39825L5.20473 4.77194L5.72617 4.37925H5.07315L4.87335 3.74299ZM2.13456 3.74299L1.92013 4.37925H1.27686L1.7983 4.77194L1.60337 5.39825L2.13456 5.01053L2.65112 5.39825L2.45132 4.77194L2.98251 4.37925H2.32949L2.13456 3.74299ZM7.61701 3.74299L7.42208 4.37925H6.76419L7.30025 4.77194L7.09557 5.39825L7.61701 5.01053L8.15307 5.39825L7.9484 4.77194L8.46984 4.37925H7.82656L7.61701 3.74299ZM10.3704 3.74299L10.1657 4.37925H9.5176L10.0439 4.77194L9.84898 5.39825L10.3704 5.01053L10.8967 5.39825L10.6872 4.77194L11.2233 4.37925H10.5654L10.3704 3.74299ZM2.13456 1.22778L1.92013 1.8541H1.27686L1.7983 2.24679L1.60337 2.87808L2.13456 2.48539L2.65112 2.87808L2.45132 2.24679L2.98251 1.8541H2.32949L2.13456 1.22778ZM4.87335 1.22778L4.66867 1.8541H4.02539L4.54684 2.24679L4.3519 2.87808L4.87335 2.48539L5.39966 2.87808L5.20473 2.24679L5.72617 1.8541H5.07315L4.87335 1.22778ZM7.61701 1.22778L7.42208 1.8541H6.76419L7.30025 2.24679L7.09557 2.87808L7.61701 2.48539L8.15307 2.87808L7.9484 2.24679L8.46984 1.8541H7.82656L7.61701 1.22778ZM10.3704 1.22778L10.1657 1.8541H9.5176L10.0439 2.24679L9.84898 2.87808L10.3704 2.48539L10.8967 2.87808L10.6872 2.24679L11.2233 1.8541H10.5654L10.3704 1.22778Z" fill="white"/>
</g>
<defs>
<clipPath id="clip0_1_1818">
<rect width="25" height="17" fill="white"/>
</clipPath>
</defs>
</svg>
