<svg width="71" height="81" viewBox="0 0 71 81" fill="none" xmlns="http://www.w3.org/2000/svg">
<path d="M68.2268 80.7094H2.7732C1.24126 80.7094 0 79.4701 0 77.9404V30.3419H71V77.9404C71 79.4701 69.7587 80.7094 68.2268 80.7094Z" fill="#0D2D6C"/>
<path d="M35.5 0L0 30.6453L35.5 61.2906L71 30.6453L35.5 0Z" fill="#0072BC"/>
<path d="M35.4996 50.3677L1.21368 79.9608C1.70533 80.4223 2.36325 80.7096 3.09268 80.7096H67.9073C68.6359 80.7096 69.2947 80.4223 69.7863 79.9608C68.1353 78.5371 35.4996 50.3677 35.4996 50.3677Z" fill="#081E4A"/>
<path d="M9.70935 6.67505V26.5034V35.1304L29.1254 52.1879L35.4999 46.5881C35.4999 46.5881 38.1025 48.8744 41.8745 52.1879L61.2905 35.1304V26.5034V6.67505H9.70935Z" fill="white"/>
<path d="M35.5 39.4444C42.0354 39.4444 47.3334 34.1464 47.3334 27.611C47.3334 21.0757 42.0354 15.7777 35.5 15.7777C28.9647 15.7777 23.6667 21.0757 23.6667 27.611C23.6667 34.1464 28.9647 39.4444 35.5 39.4444Z" fill="white"/>
<path d="M35.8034 14.5641C28.4303 14.5641 22.453 20.5413 22.453 27.9145C22.453 35.2877 28.4303 41.2649 35.8034 41.2649C43.1766 41.2649 49.1539 35.2877 49.1539 27.9145C49.1539 20.5413 43.1766 14.5641 35.8034 14.5641ZM42.3997 25.2317L35.1202 33.7952C34.8499 34.1133 34.4546 34.2955 34.0384 34.2955C34.0338 34.2955 34.0298 34.2955 34.0259 34.2955C33.6051 34.2916 33.2081 34.1013 32.9406 33.7759L29.4298 29.4939C28.9329 28.8879 29.0209 27.9929 29.6274 27.4954C30.2339 26.9985 31.1284 27.0871 31.6253 27.6936L34.0577 30.6609L40.236 23.3928C40.7448 22.7954 41.6393 22.7227 42.2373 23.2304C42.8347 23.7375 42.9074 24.6337 42.3997 25.2317Z" fill="#0072BC"/>
</svg>
