<svg width="135" height="135" viewBox="0 0 135 135" fill="none" xmlns="http://www.w3.org/2000/svg">
<path d="M80.1474 117.613C57.6709 117.613 39.385 99.3268 39.385 76.8503C39.385 54.3739 57.6709 36.088 80.1474 36.088C81.4529 36.088 82.0782 36.1221 82.582 36.1665L84.0179 4.63159H23.4568V130.411H84.0164L82.5806 117.533C82.093 117.596 81.4529 117.613 80.1474 117.613Z" fill="white"/>
<path d="M66.2982 4.62418H40.0549V11.2183H66.2982V4.62418Z" fill="white"/>
<path d="M82.5822 117.534V126.553C82.5822 127.451 81.8516 128.18 80.9551 128.18H27.4209C26.5229 128.18 25.7938 127.449 25.7938 126.553V7.75233C25.7938 7.15515 26.2798 6.6691 26.877 6.6691H35.3072C35.8688 10.144 38.3479 12.7832 41.2997 12.7832H67.0777C70.0296 12.7832 72.5072 10.144 73.0703 6.6691H80.9551C81.8531 6.6691 82.5822 7.39965 82.5822 8.29616V36.168C84.6004 36.288 86.5802 36.5503 88.5095 36.9549V8.29616C88.5095 4.12479 85.1265 0.74176 80.9551 0.74176H26.877C23.005 0.74176 19.8665 3.88029 19.8665 7.75233V126.553C19.8665 130.725 23.2495 134.107 27.4209 134.107H80.9536C85.1265 134.107 88.508 130.724 88.508 126.553V116.747C86.5802 117.15 84.6004 117.414 82.5822 117.534ZM62.9019 7.03956C63.5154 7.03956 64.0133 7.53746 64.0133 8.15094C64.0133 8.76442 63.5154 9.26232 62.9019 9.26232C62.2885 9.26232 61.7906 8.76442 61.7906 8.15094C61.7906 7.53746 62.2885 7.03956 62.9019 7.03956ZM44.3627 7.03956H58.3897C59.0032 7.03956 59.5011 7.53746 59.5011 8.15094C59.5011 8.76442 59.0032 9.26232 58.3897 9.26232H44.3627C43.7492 9.26232 43.2513 8.76442 43.2513 8.15094C43.2513 7.53746 43.7492 7.03956 44.3627 7.03956Z" fill="#0072BC"/>
<path d="M80.1532 107.967C97.3395 107.967 111.272 94.0351 111.272 76.8488C111.272 59.6625 97.3395 45.7303 80.1532 45.7303C62.9669 45.7303 49.0347 59.6625 49.0347 76.8488C49.0347 94.0351 62.9669 107.967 80.1532 107.967Z" fill="#0C1552"/>
<path d="M80.0001 62.4299C78.5701 62.4299 77.3601 62.9299 76.3601 63.9299C75.3601 64.9299 74.8601 66.1399 74.8601 67.5699V70.9999H85.1501V67.5699C85.1501 66.1399 84.6501 64.9299 83.6501 63.9299C82.6501 62.9299 81.4401 62.4299 80.0101 62.4299H80.0001Z" fill="white"/>
<path d="M80.0001 79.5701C79.0601 79.5701 78.2501 79.9101 77.5801 80.5801C76.9101 81.2501 76.5701 82.0601 76.5701 83.0001C76.5701 83.9401 76.9101 84.7501 77.5801 85.4201C78.2501 86.0901 79.0601 86.4301 80.0001 86.4301C80.9401 86.4301 81.7501 86.0901 82.4201 85.4201C83.0901 84.7501 83.4301 83.9401 83.4301 83.0001C83.4301 82.0601 83.0901 81.2501 82.4201 80.5801C81.7501 79.9101 80.9401 79.5701 80.0001 79.5701Z" fill="white"/>
<path d="M80 42C60.67 42 45 57.67 45 77C45 96.33 60.67 112 80 112C99.33 112 115 96.33 115 77C115 57.67 99.33 42 80 42ZM93.71 91.57C93.71 92.51 93.37 93.32 92.7 93.99C92.03 94.66 91.22 95 90.28 95H69.71C68.77 95 67.96 94.66 67.29 93.99C66.62 93.32 66.28 92.51 66.28 91.57V74.43C66.28 73.49 66.62 72.68 67.29 72.01C67.96 71.34 68.77 71 69.71 71H71.42V67.57C71.42 65.2 72.26 63.18 73.93 61.51C75.6 59.84 77.62 59 79.99 59C82.36 59 84.38 59.84 86.05 61.51C87.72 63.18 88.56 65.2 88.56 67.57V71H90.27C91.21 71 92.02 71.34 92.69 72.01C93.36 72.68 93.7 73.49 93.7 74.43V91.57H93.71Z" fill="white"/>
</svg>
