<svg width="16" height="16" viewBox="0 0 16 16" fill="none" xmlns="http://www.w3.org/2000/svg">
<path d="M14 3.98683C11.78 3.76683 9.54667 3.6535 7.32 3.6535C6 3.6535 4.68 3.72016 3.36 3.8535L2 3.98683M5.66667 3.3135L5.81333 2.44016C5.92 1.80683 6 1.3335 7.12667 1.3335H8.87333C10 1.3335 10.0867 1.8335 10.1867 2.44683L10.3333 3.3135M12.5667 6.0935L12.1333 12.8068C12.06 13.8535 12 14.6668 10.14 14.6668H5.86C4 14.6668 3.94 13.8535 3.86667 12.8068L3.43333 6.0935M6.88667 11.0002H9.10667M6.33333 8.3335H9.66667" stroke="#AEAEB4" stroke-width="1.5" stroke-linecap="round" stroke-linejoin="round"/>
</svg>
