<svg width="28" height="28" viewBox="0 0 28 28" fill="none" xmlns="http://www.w3.org/2000/svg">
<g id="Iconsax/Linear/addcircle">
<path id="Vector (Stroke)" fill-rule="evenodd" clip-rule="evenodd" d="M1.55566 14.0001C1.55566 7.15389 7.15389 1.55566 14.0001 1.55566C20.8463 1.55566 26.4446 7.15389 26.4446 14.0001C26.4446 20.8463 20.8463 26.4446 14.0001 26.4446C7.15389 26.4446 1.55566 20.8463 1.55566 14.0001ZM14.0001 3.11122C8.013 3.11122 3.11122 8.013 3.11122 14.0001C3.11122 19.9872 8.013 24.889 14.0001 24.889C19.9872 24.889 24.889 19.9872 24.889 14.0001C24.889 8.013 19.9872 3.11122 14.0001 3.11122ZM14.0001 8.55566C14.4297 8.55566 14.7779 8.90389 14.7779 9.33344V13.2223H18.6668C19.0963 13.2223 19.4446 13.5706 19.4446 14.0001C19.4446 14.4297 19.0963 14.7779 18.6668 14.7779H14.7779V18.6668C14.7779 19.0963 14.4297 19.4446 14.0001 19.4446C13.5706 19.4446 13.2223 19.0963 13.2223 18.6668V14.7779H9.33344C8.90389 14.7779 8.55566 14.4297 8.55566 14.0001C8.55566 13.5706 8.90389 13.2223 9.33344 13.2223H13.2223V9.33344C13.2223 8.90389 13.5706 8.55566 14.0001 8.55566Z" fill="#3E51B3"/>
</g>
</svg>
