<svg width="40" height="39" viewBox="0 0 40 39" fill="none" xmlns="http://www.w3.org/2000/svg">
<path d="M18.7062 28.875H21.5812V21.0938H29.5833V18.2813H21.5812V10.125H18.7062V18.2813H10.4166V21.0938H18.7062V28.875ZM20.0127 38.25C17.3698 38.25 14.8861 37.7578 12.5616 36.7734C10.2372 35.7891 8.20443 34.4453 6.46346 32.7422C4.72249 31.0391 3.34888 29.0494 2.34263 26.7731C1.33638 24.4968 0.833252 22.0647 0.833252 19.4766C0.833252 16.8885 1.33638 14.4563 2.34263 12.18C3.34888 9.90377 4.72249 7.92188 6.46346 6.23438C8.20443 4.54688 10.2384 3.21094 12.5652 2.22656C14.8921 1.24219 17.3783 0.75 20.0239 0.75C22.6695 0.75 25.1557 1.24219 27.4825 2.22656C29.8094 3.21094 31.8353 4.54688 33.5603 6.23438C35.2853 7.92188 36.651 9.90625 37.6572 12.1875C38.6635 14.4688 39.1666 16.9021 39.1666 19.4875C39.1666 22.073 38.6635 24.5027 37.6572 26.7766C36.651 29.0505 35.2853 31.0362 33.5603 32.7336C31.8353 34.4309 29.8069 35.7747 27.4749 36.7648C25.143 37.7549 22.6556 38.25 20.0127 38.25Z" fill="#0065BD"/>
</svg>
