<svg width="71" height="81" viewBox="0 0 71 81" fill="none" xmlns="http://www.w3.org/2000/svg">
<g id="Group 6840">
<path id="Vector" d="M68.2268 80.7093H2.7732C1.24126 80.7093 0 79.4699 0 77.9403V30.3418H71V77.9403C71 79.4699 69.7587 80.7093 68.2268 80.7093Z" fill="#0D2D6C"/>
<path id="Vector_2" d="M35.5 0L0 30.6453L35.5 61.2906L71 30.6453L35.5 0Z" fill="#0072BC"/>
<path id="Vector_3" d="M35.4996 50.3677L1.21368 79.9608C1.70533 80.4223 2.36325 80.7096 3.09268 80.7096H67.9073C68.6359 80.7096 69.2947 80.4223 69.7863 79.9608C68.1353 78.5371 35.4996 50.3677 35.4996 50.3677Z" fill="#081E4A"/>
<path id="Vector_4" d="M9.70935 6.67505V26.5034V35.1304L29.1254 52.1879L35.4999 46.5881C35.4999 46.5881 38.1025 48.8744 41.8745 52.1879L61.2905 35.1304V26.5034V6.67505H9.70935Z" fill="white"/>
<path id="Vector_5" d="M35.5 39.4445C42.0354 39.4445 47.3334 34.1465 47.3334 27.6112C47.3334 21.0758 42.0354 15.7778 35.5 15.7778C28.9647 15.7778 23.6667 21.0758 23.6667 27.6112C23.6667 34.1465 28.9647 39.4445 35.5 39.4445Z" fill="white"/>
<path id="Vector_6" d="M35.8034 14.5642C28.4303 14.5642 22.453 20.5415 22.453 27.9146C22.453 35.2878 28.4303 41.2651 35.8034 41.2651C43.1766 41.2651 49.1539 35.2878 49.1539 27.9146C49.1539 20.5415 43.1766 14.5642 35.8034 14.5642ZM42.3997 25.2318L35.1202 33.7953C34.8499 34.1134 34.4546 34.2957 34.0384 34.2957C34.0338 34.2957 34.0298 34.2957 34.0259 34.2957C33.6051 34.2917 33.2081 34.1014 32.9406 33.776L29.4298 29.494C28.9329 28.888 29.0209 27.993 29.6274 27.4955C30.2339 26.9986 31.1284 27.0872 31.6253 27.6937L34.0577 30.661L40.236 23.3929C40.7448 22.7955 41.6393 22.7228 42.2373 23.2305C42.8347 23.7377 42.9074 24.6338 42.3997 25.2318Z" fill="#0072BC"/>
</g>
</svg>
