<svg width="135" height="135" viewBox="0 0 135 135" fill="none" xmlns="http://www.w3.org/2000/svg">
<path d="M80.1474 117.613C57.6709 117.613 39.385 99.3267 39.385 76.8502C39.385 54.3737 57.6709 36.0879 80.1474 36.0879C81.4529 36.0879 82.0782 36.122 82.582 36.1664L84.0179 4.63147H23.4568V130.411H84.0164L82.5806 117.533C82.093 117.596 81.4529 117.613 80.1474 117.613Z" fill="white"/>
<path d="M66.2981 4.62415H40.0548V11.2183H66.2981V4.62415Z" fill="white"/>
<path d="M82.5821 117.534V126.553C82.5821 127.451 81.8515 128.18 80.955 128.18H27.4207C26.5227 128.18 25.7937 127.449 25.7937 126.553V7.75227C25.7937 7.15509 26.2797 6.66904 26.8769 6.66904H35.3071C35.8687 10.1439 38.3478 12.7831 41.2996 12.7831H67.0776C70.0294 12.7831 72.5071 10.1439 73.0702 6.66904H80.955C81.853 6.66904 82.5821 7.39959 82.5821 8.2961V36.168C84.6003 36.288 86.5801 36.5503 88.5094 36.9548V8.2961C88.5094 4.12473 85.1264 0.741699 80.955 0.741699H26.8769C23.0049 0.741699 19.8663 3.88023 19.8663 7.75227V126.553C19.8663 130.725 23.2494 134.107 27.4207 134.107H80.9535C85.1264 134.107 88.5079 130.724 88.5079 126.553V116.747C86.5801 117.15 84.6003 117.414 82.5821 117.534ZM62.9018 7.0395C63.5153 7.0395 64.0132 7.5374 64.0132 8.15088C64.0132 8.76436 63.5153 9.26226 62.9018 9.26226C62.2883 9.26226 61.7904 8.76436 61.7904 8.15088C61.7904 7.5374 62.2883 7.0395 62.9018 7.0395ZM44.3626 7.0395H58.3896C59.0031 7.0395 59.501 7.5374 59.501 8.15088C59.501 8.76436 59.0031 9.26226 58.3896 9.26226H44.3626C43.7491 9.26226 43.2512 8.76436 43.2512 8.15088C43.2512 7.5374 43.7491 7.0395 44.3626 7.0395Z" fill="#0072BC"/>
<path d="M80.1533 107.967C97.3396 107.967 111.272 94.0351 111.272 76.8488C111.272 59.6625 97.3396 45.7302 80.1533 45.7302C62.967 45.7302 49.0348 59.6625 49.0348 76.8488C49.0348 94.0351 62.967 107.967 80.1533 107.967Z" fill="#F1EFEF"/>
<path d="M80.1474 42.0153C60.9087 42.0153 45.3124 57.6116 45.3124 76.8503C45.3124 96.0889 60.9087 111.685 80.1474 111.685C99.386 111.685 114.982 96.0889 114.982 76.8503C114.982 57.6116 99.386 42.0153 80.1474 42.0153ZM97.3589 69.8501L78.3647 92.1947C77.6594 93.0245 76.628 93.5002 75.5418 93.5002C75.53 93.5002 75.5196 93.5002 75.5092 93.5002C74.4112 93.4898 73.3754 92.9934 72.6774 92.1443L63.5167 80.9712C62.2201 79.3901 62.4498 77.0547 64.0324 75.7567C65.615 74.4601 67.9489 74.6912 69.2455 76.2738L75.5922 84.0164L91.7131 65.0519C93.0408 63.493 95.3747 63.3033 96.9351 64.6281C98.494 65.9514 98.6837 68.2897 97.3589 69.8501Z" fill="white"/>
</svg>
