<svg width="117" height="133" viewBox="0 0 117 133" fill="none" xmlns="http://www.w3.org/2000/svg">
<g id="Group 6822">
<path id="Vector" d="M112.43 133H4.56992C2.04545 133 0 130.958 0 128.437V50H117V128.437C117 130.958 114.955 133 112.43 133Z" fill="#0072BC"/>
<path id="Vector_2" d="M58.5 0L0 50.5L58.5 101L117 50.5L58.5 0Z" fill="#0072BC"/>
<path id="Vector_3" d="M58.4993 83L2 131.766C2.81018 132.527 3.89436 133 5.09637 133H111.904C113.104 133 114.19 132.527 115 131.766C112.279 129.42 58.4993 83 58.4993 83Z" fill="#081E4A"/>
<path id="Vector_4" d="M16 11V43.6749V57.8912L47.9955 86L58.5 76.7722C58.5 76.7722 62.7888 80.5398 69.0045 86L101 57.8912V43.6749V11H16Z" fill="white"/>
<path id="Vector_5" d="M58.5 65C69.2696 65 78 56.2696 78 45.5C78 34.7304 69.2696 26 58.5 26C47.7304 26 39 34.7304 39 45.5C39 56.2696 47.7304 65 58.5 65Z" fill="white"/>
<path id="Vector_6" d="M59 24C46.8498 24 37 33.8498 37 46C37 58.1502 46.8498 68 59 68C71.1502 68 81 58.1502 81 46C81 33.8498 71.1502 24 59 24ZM69.8699 41.579L57.8742 55.6907C57.4287 56.2148 56.7774 56.5152 56.0914 56.5152C56.0839 56.5152 56.0773 56.5152 56.0708 56.5152C55.3773 56.5087 54.7232 56.1952 54.2824 55.6589L48.4969 48.6026C47.6781 47.604 47.8231 46.1291 48.8226 45.3093C49.8221 44.4905 51.2961 44.6365 52.1149 45.636L56.1232 50.5258L66.3043 38.5487C67.1428 37.5642 68.6168 37.4444 69.6023 38.2811C70.5868 39.1168 70.7066 40.5936 69.8699 41.579Z" fill="#0072BC"/>
</g>
</svg>
