<svg width="135" height="135" viewBox="0 0 135 135" fill="none" xmlns="http://www.w3.org/2000/svg">
<path d="M80.1474 117.613C57.6709 117.613 39.385 99.3268 39.385 76.8503C39.385 54.3739 57.6709 36.088 80.1474 36.088C81.4529 36.088 82.0782 36.1221 82.582 36.1665L84.0179 4.63159H23.4568V130.411H84.0164L82.5806 117.533C82.093 117.596 81.4529 117.613 80.1474 117.613Z" fill="white"/>
<path d="M66.2982 4.62418H40.0549V11.2183H66.2982V4.62418Z" fill="white"/>
<path d="M82.5822 117.534V126.553C82.5822 127.451 81.8516 128.18 80.9551 128.18H27.4209C26.5229 128.18 25.7938 127.449 25.7938 126.553V7.75233C25.7938 7.15515 26.2798 6.6691 26.877 6.6691H35.3072C35.8688 10.144 38.3479 12.7832 41.2997 12.7832H67.0777C70.0296 12.7832 72.5072 10.144 73.0703 6.6691H80.9551C81.8531 6.6691 82.5822 7.39965 82.5822 8.29616V36.168C84.6004 36.288 86.5802 36.5503 88.5095 36.9549V8.29616C88.5095 4.12479 85.1265 0.74176 80.9551 0.74176H26.877C23.005 0.74176 19.8665 3.88029 19.8665 7.75233V126.553C19.8665 130.725 23.2495 134.107 27.4209 134.107H80.9536C85.1265 134.107 88.508 130.724 88.508 126.553V116.747C86.5802 117.15 84.6004 117.414 82.5822 117.534ZM62.9019 7.03956C63.5154 7.03956 64.0133 7.53746 64.0133 8.15094C64.0133 8.76442 63.5154 9.26232 62.9019 9.26232C62.2885 9.26232 61.7906 8.76442 61.7906 8.15094C61.7906 7.53746 62.2885 7.03956 62.9019 7.03956ZM44.3627 7.03956H58.3897C59.0032 7.03956 59.5011 7.53746 59.5011 8.15094C59.5011 8.76442 59.0032 9.26232 58.3897 9.26232H44.3627C43.7492 9.26232 43.2513 8.76442 43.2513 8.15094C43.2513 7.53746 43.7492 7.03956 44.3627 7.03956Z" fill="#0072BC"/>
<path d="M80.1532 107.967C97.3395 107.967 111.272 94.0351 111.272 76.8488C111.272 59.6625 97.3395 45.7303 80.1532 45.7303C62.9669 45.7303 49.0347 59.6625 49.0347 76.8488C49.0347 94.0351 62.9669 107.967 80.1532 107.967Z" fill="white"/>
<path d="M67.4 94.5L80 81.9L92.6 94.5L97.5 89.6L84.9 77L97.5 64.4L92.6 59.5L80 72.1L67.4 59.5L62.5 64.4L75.1 77L62.5 89.6L67.4 94.5ZM80 112C75.1583 112 70.6083 111.081 66.35 109.244C62.0917 107.406 58.3875 104.912 55.2375 101.763C52.0875 98.6125 49.5938 94.9083 47.7562 90.65C45.9187 86.3917 45 81.8417 45 77C45 72.1583 45.9187 67.6083 47.7562 63.35C49.5938 59.0917 52.0875 55.3875 55.2375 52.2375C58.3875 49.0875 62.0917 46.5938 66.35 44.7562C70.6083 42.9187 75.1583 42 80 42C84.8417 42 89.3917 42.9187 93.65 44.7562C97.9083 46.5938 101.612 49.0875 104.763 52.2375C107.912 55.3875 110.406 59.0917 112.244 63.35C114.081 67.6083 115 72.1583 115 77C115 81.8417 114.081 86.3917 112.244 90.65C110.406 94.9083 107.912 98.6125 104.763 101.763C101.612 104.912 97.9083 107.406 93.65 109.244C89.3917 111.081 84.8417 112 80 112Z" fill="#FF0035"/>
</svg>
